<?xml version="1.0" encoding="UTF-8" standalone="no"?>
<!DOCTYPE svg PUBLIC "-//W3C//DTD SVG 1.1//EN"
 "http://www.w3.org/Graphics/SVG/1.1/DTD/svg11.dtd">
<!-- Generated by graphviz version 3.0.0 (20220226.1711)
 -->
<!-- Title: dependencies Pages: 1 -->
<svg width="958pt" height="247pt"
 viewBox="0.00 0.00 958.00 246.80" xmlns="http://www.w3.org/2000/svg" xmlns:xlink="http://www.w3.org/1999/xlink">
<g id="graph0" class="graph" transform="scale(1 1) rotate(0) translate(4 242.8)">
<title>dependencies</title>
<polygon fill="white" stroke="transparent" points="-4,4 -4,-242.8 954,-242.8 954,4 -4,4"/>
<text text-anchor="middle" x="475" y="-8.2" font-family="sans-serif" font-size="14.00">dependencies</text>
<g id="clust1" class="cluster">
<title>cluster_SharedModule</title>
<polygon fill="none" stroke="black" stroke-dasharray="1,5" points="8,-32.8 8,-230.8 942,-230.8 942,-32.8 8,-32.8"/>
</g>
<g id="clust9" class="cluster">
<title>cluster_SharedModule_exports</title>
<polygon fill="none" stroke="black" points="16,-170.8 16,-222.8 934,-222.8 934,-170.8 16,-170.8"/>
</g>
<g id="clust2" class="cluster">
<title>cluster_SharedModule_declarations</title>
<polygon fill="none" stroke="black" points="24,-40.8 24,-92.8 925,-92.8 925,-40.8 24,-40.8"/>
</g>
<!-- SidenavItemComponent -->
<g id="node1" class="node">
<title>SidenavItemComponent</title>
<polygon fill="#ffffb3" stroke="black" points="917.09,-84.8 764.91,-84.8 764.91,-48.8 917.09,-48.8 917.09,-84.8"/>
<text text-anchor="middle" x="841" y="-62.6" font-family="Times,serif" font-size="14.00">SidenavItemComponent</text>
</g>
<!-- SharedModule -->
<g id="node6" class="node">
<title>SharedModule</title>
<polygon fill="#8dd3c7" stroke="black" points="543.43,-149.8 540.43,-153.8 519.43,-153.8 516.43,-149.8 444.57,-149.8 444.57,-113.8 543.43,-113.8 543.43,-149.8"/>
<text text-anchor="middle" x="494" y="-127.6" font-family="Times,serif" font-size="14.00">SharedModule</text>
</g>
<!-- SidenavItemComponent&#45;&gt;SharedModule -->
<g id="edge1" class="edge">
<title>SidenavItemComponent&#45;&gt;SharedModule</title>
<path fill="none" stroke="black" d="M868.1,-85.07C868.1,-103.36 868.1,-128.8 868.1,-128.8 868.1,-128.8 553.29,-128.8 553.29,-128.8"/>
<polygon fill="black" stroke="black" points="553.29,-125.3 543.29,-128.8 553.29,-132.3 553.29,-125.3"/>
</g>
<!-- SidenavUserInfoComponent -->
<g id="node2" class="node">
<title>SidenavUserInfoComponent</title>
<polygon fill="#ffffb3" stroke="black" points="747.19,-84.8 570.81,-84.8 570.81,-48.8 747.19,-48.8 747.19,-84.8"/>
<text text-anchor="middle" x="659" y="-62.6" font-family="Times,serif" font-size="14.00">SidenavUserInfoComponent</text>
</g>
<!-- SidenavUserInfoComponent&#45;&gt;SharedModule -->
<g id="edge2" class="edge">
<title>SidenavUserInfoComponent&#45;&gt;SharedModule</title>
<path fill="none" stroke="black" d="M688.78,-84.81C688.78,-100.85 688.78,-121.8 688.78,-121.8 688.78,-121.8 553.4,-121.8 553.4,-121.8"/>
<polygon fill="black" stroke="black" points="553.4,-118.3 543.4,-121.8 553.4,-125.3 553.4,-118.3"/>
</g>
<!-- SteperComponent -->
<g id="node3" class="node">
<title>SteperComponent</title>
<polygon fill="#ffffb3" stroke="black" points="552.6,-84.8 435.4,-84.8 435.4,-48.8 552.6,-48.8 552.6,-84.8"/>
<text text-anchor="middle" x="494" y="-62.6" font-family="Times,serif" font-size="14.00">SteperComponent</text>
</g>
<!-- SteperComponent&#45;&gt;SharedModule -->
<g id="edge3" class="edge">
<title>SteperComponent&#45;&gt;SharedModule</title>
<path fill="none" stroke="black" d="M494,-84.91C494,-84.91 494,-103.79 494,-103.79"/>
<polygon fill="black" stroke="black" points="490.5,-103.79 494,-113.79 497.5,-103.79 490.5,-103.79"/>
</g>
<!-- TooltipRedSmallComponent -->
<g id="node4" class="node">
<title>TooltipRedSmallComponent</title>
<polygon fill="#ffffb3" stroke="black" points="417.77,-84.8 240.23,-84.8 240.23,-48.8 417.77,-48.8 417.77,-84.8"/>
<text text-anchor="middle" x="329" y="-62.6" font-family="Times,serif" font-size="14.00">TooltipRedSmallComponent</text>
</g>
<!-- TooltipRedSmallComponent&#45;&gt;SharedModule -->
<g id="edge4" class="edge">
<title>TooltipRedSmallComponent&#45;&gt;SharedModule</title>
<path fill="none" stroke="black" d="M357.13,-84.81C357.13,-100.85 357.13,-121.8 357.13,-121.8 357.13,-121.8 434.59,-121.8 434.59,-121.8"/>
<polygon fill="black" stroke="black" points="434.59,-125.3 444.59,-121.8 434.59,-118.3 434.59,-125.3"/>
</g>
<!-- TooltipWhiteSmallComponent -->
<g id="node5" class="node">
<title>TooltipWhiteSmallComponent</title>
<polygon fill="#ffffb3" stroke="black" points="221.93,-84.8 32.07,-84.8 32.07,-48.8 221.93,-48.8 221.93,-84.8"/>
<text text-anchor="middle" x="127" y="-62.6" font-family="Times,serif" font-size="14.00">TooltipWhiteSmallComponent</text>
</g>
<!-- TooltipWhiteSmallComponent&#45;&gt;SharedModule -->
<g id="edge5" class="edge">
<title>TooltipWhiteSmallComponent&#45;&gt;SharedModule</title>
<path fill="none" stroke="black" d="M155.07,-85.07C155.07,-103.36 155.07,-128.8 155.07,-128.8 155.07,-128.8 434.72,-128.8 434.72,-128.8"/>
<polygon fill="black" stroke="black" points="434.72,-132.3 444.72,-128.8 434.72,-125.3 434.72,-132.3"/>
</g>
<!-- SidenavItemComponent  -->
<g id="node7" class="node">
<title>SidenavItemComponent </title>
<polygon fill="#fb8072" stroke="black" points="925.59,-214.8 770.41,-214.8 770.41,-178.8 925.59,-178.8 925.59,-214.8"/>
<text text-anchor="middle" x="848" y="-192.6" font-family="Times,serif" font-size="14.00">SidenavItemComponent </text>
</g>
<!-- SharedModule&#45;&gt;SidenavItemComponent  -->
<g id="edge6" class="edge">
<title>SharedModule&#45;&gt;SidenavItemComponent </title>
<path fill="none" stroke="black" stroke-dasharray="5,2" d="M543.38,-135.8C634.34,-135.8 819.15,-135.8 819.15,-135.8 819.15,-135.8 819.15,-168.5 819.15,-168.5"/>
<polygon fill="black" stroke="black" points="815.65,-168.5 819.15,-178.5 822.65,-168.5 815.65,-168.5"/>
</g>
<!-- SidenavUserInfoComponent  -->
<g id="node8" class="node">
<title>SidenavUserInfoComponent </title>
<polygon fill="#fb8072" stroke="black" points="751.69,-214.8 572.31,-214.8 572.31,-178.8 751.69,-178.8 751.69,-214.8"/>
<text text-anchor="middle" x="662" y="-192.6" font-family="Times,serif" font-size="14.00">SidenavUserInfoComponent </text>
</g>
<!-- SharedModule&#45;&gt;SidenavUserInfoComponent  -->
<g id="edge7" class="edge">
<title>SharedModule&#45;&gt;SidenavUserInfoComponent </title>
<path fill="none" stroke="black" stroke-dasharray="5,2" d="M543.27,-142.8C582.36,-142.8 630.47,-142.8 630.47,-142.8 630.47,-142.8 630.47,-168.52 630.47,-168.52"/>
<polygon fill="black" stroke="black" points="626.97,-168.52 630.47,-178.52 633.97,-168.52 626.97,-168.52"/>
</g>
<!-- SteperComponent  -->
<g id="node9" class="node">
<title>SteperComponent </title>
<polygon fill="#fb8072" stroke="black" points="554.1,-214.8 433.9,-214.8 433.9,-178.8 554.1,-178.8 554.1,-214.8"/>
<text text-anchor="middle" x="494" y="-192.6" font-family="Times,serif" font-size="14.00">SteperComponent </text>
</g>
<!-- SharedModule&#45;&gt;SteperComponent  -->
<g id="edge8" class="edge">
<title>SharedModule&#45;&gt;SteperComponent </title>
<path fill="none" stroke="black" stroke-dasharray="5,2" d="M494,-149.91C494,-149.91 494,-168.79 494,-168.79"/>
<polygon fill="black" stroke="black" points="490.5,-168.79 494,-178.79 497.5,-168.79 490.5,-168.79"/>
</g>
<!-- TooltipRedSmallComponent  -->
<g id="node10" class="node">
<title>TooltipRedSmallComponent </title>
<polygon fill="#fb8072" stroke="black" points="415.77,-214.8 234.23,-214.8 234.23,-178.8 415.77,-178.8 415.77,-214.8"/>
<text text-anchor="middle" x="325" y="-192.6" font-family="Times,serif" font-size="14.00">TooltipRedSmallComponent </text>
</g>
<!-- SharedModule&#45;&gt;TooltipRedSmallComponent  -->
<g id="edge9" class="edge">
<title>SharedModule&#45;&gt;TooltipRedSmallComponent </title>
<path fill="none" stroke="black" stroke-dasharray="5,2" d="M444.7,-142.8C386.82,-142.8 298.62,-142.8 298.62,-142.8 298.62,-142.8 298.62,-168.52 298.62,-168.52"/>
<polygon fill="black" stroke="black" points="295.12,-168.52 298.62,-178.52 302.12,-168.52 295.12,-168.52"/>
</g>
<!-- TooltipWhiteSmallComponent  -->
<g id="node11" class="node">
<title>TooltipWhiteSmallComponent </title>
<polygon fill="#fb8072" stroke="black" points="216.43,-214.8 23.57,-214.8 23.57,-178.8 216.43,-178.8 216.43,-214.8"/>
<text text-anchor="middle" x="120" y="-192.6" font-family="Times,serif" font-size="14.00">TooltipWhiteSmallComponent </text>
</g>
<!-- SharedModule&#45;&gt;TooltipWhiteSmallComponent  -->
<g id="edge10" class="edge">
<title>SharedModule&#45;&gt;TooltipWhiteSmallComponent </title>
<path fill="none" stroke="black" stroke-dasharray="5,2" d="M444.51,-135.8C337.4,-135.8 93.68,-135.8 93.68,-135.8 93.68,-135.8 93.68,-168.5 93.68,-168.5"/>
<polygon fill="black" stroke="black" points="90.18,-168.5 93.68,-178.5 97.18,-168.5 90.18,-168.5"/>
</g>
</g>
</svg>
