<?xml version="1.0" encoding="UTF-8" standalone="no"?>
<!DOCTYPE svg PUBLIC "-//W3C//DTD SVG 1.1//EN"
 "http://www.w3.org/Graphics/SVG/1.1/DTD/svg11.dtd">
<!-- Generated by graphviz version 5.0.0 (20220707.1540)
 -->
<!-- Title: dependencies Pages: 1 -->
<svg width="2087pt" height="247pt"
 viewBox="0.00 0.00 2087.00 246.80" xmlns="http://www.w3.org/2000/svg" xmlns:xlink="http://www.w3.org/1999/xlink">
<g id="graph0" class="graph" transform="scale(1 1) rotate(0) translate(4 242.8)">
<title>dependencies</title>
<polygon fill="white" stroke="transparent" points="-4,4 -4,-242.8 2083,-242.8 2083,4 -4,4"/>
<text text-anchor="middle" x="1039.5" y="-8.2" font-family="sans-serif" font-size="14.00">dependencies</text>
<g id="clust1" class="cluster">
<title>cluster_SharedModule</title>
<polygon fill="none" stroke="black" stroke-dasharray="1,5" points="8,-32.8 8,-230.8 2071,-230.8 2071,-32.8 8,-32.8"/>
</g>
<g id="clust2" class="cluster">
<title>cluster_SharedModule_declarations</title>
<polygon fill="none" stroke="black" points="165,-40.8 165,-92.8 2044,-92.8 2044,-40.8 165,-40.8"/>
</g>
<g id="clust14" class="cluster">
<title>cluster_SharedModule_imports</title>
<polygon fill="none" stroke="black" points="35,-40.8 35,-92.8 157,-92.8 157,-40.8 35,-40.8"/>
</g>
<g id="clust15" class="cluster">
<title>cluster_SharedModule_exports</title>
<polygon fill="none" stroke="black" points="16,-170.8 16,-222.8 2063,-222.8 2063,-170.8 16,-170.8"/>
</g>
<!-- Button -->
<g id="node1" class="node">
<title>Button</title>
<polygon fill="#ffffb3" stroke="black" points="2036.12,-84.8 1981.88,-84.8 1981.88,-48.8 2036.12,-48.8 2036.12,-84.8"/>
<text text-anchor="middle" x="2009" y="-62.6" font-family="Times,serif" font-size="14.00">Button</text>
</g>
<!-- SharedModule -->
<g id="node12" class="node">
<title>SharedModule</title>
<polygon fill="#8dd3c7" stroke="black" points="1129.43,-149.8 1126.43,-153.8 1105.43,-153.8 1102.43,-149.8 1030.57,-149.8 1030.57,-113.8 1129.43,-113.8 1129.43,-149.8"/>
<text text-anchor="middle" x="1080" y="-127.6" font-family="Times,serif" font-size="14.00">SharedModule</text>
</g>
<!-- Button&#45;&gt;SharedModule -->
<g id="edge1" class="edge">
<title>Button&#45;&gt;SharedModule</title>
<path fill="none" stroke="black" d="M1989.57,-84.97C1989.57,-103.89 1989.57,-130.8 1989.57,-130.8 1989.57,-130.8 1139.22,-130.8 1139.22,-130.8"/>
<polygon fill="black" stroke="black" points="1139.22,-127.3 1129.22,-130.8 1139.22,-134.3 1139.22,-127.3"/>
</g>
<!-- ButtonCustomizedComponent -->
<g id="node2" class="node">
<title>ButtonCustomizedComponent</title>
<polygon fill="#ffffb3" stroke="black" points="1964.33,-84.8 1777.67,-84.8 1777.67,-48.8 1964.33,-48.8 1964.33,-84.8"/>
<text text-anchor="middle" x="1871" y="-62.6" font-family="Times,serif" font-size="14.00">ButtonCustomizedComponent</text>
</g>
<!-- ButtonCustomizedComponent&#45;&gt;SharedModule -->
<g id="edge2" class="edge">
<title>ButtonCustomizedComponent&#45;&gt;SharedModule</title>
<path fill="none" stroke="black" d="M1783.46,-85.1C1783.46,-103.07 1783.46,-127.8 1783.46,-127.8 1783.46,-127.8 1139.47,-127.8 1139.47,-127.8"/>
<polygon fill="black" stroke="black" points="1139.47,-124.3 1129.47,-127.8 1139.47,-131.3 1139.47,-124.3"/>
</g>
<!-- ButtonFormComponent -->
<g id="node3" class="node">
<title>ButtonFormComponent</title>
<polygon fill="#ffffb3" stroke="black" points="1759.79,-84.8 1610.21,-84.8 1610.21,-48.8 1759.79,-48.8 1759.79,-84.8"/>
<text text-anchor="middle" x="1685" y="-62.6" font-family="Times,serif" font-size="14.00">ButtonFormComponent</text>
</g>
<!-- ButtonFormComponent&#45;&gt;SharedModule -->
<g id="edge3" class="edge">
<title>ButtonFormComponent&#45;&gt;SharedModule</title>
<path fill="none" stroke="black" d="M1613.73,-84.84C1613.73,-101.53 1613.73,-123.8 1613.73,-123.8 1613.73,-123.8 1139.26,-123.8 1139.26,-123.8"/>
<polygon fill="black" stroke="black" points="1139.26,-120.3 1129.26,-123.8 1139.26,-127.3 1139.26,-120.3"/>
</g>
<!-- DialogErrorEmailComponent -->
<g id="node4" class="node">
<title>DialogErrorEmailComponent</title>
<polygon fill="#ffffb3" stroke="black" points="1592.41,-84.8 1409.59,-84.8 1409.59,-48.8 1592.41,-48.8 1592.41,-84.8"/>
<text text-anchor="middle" x="1501" y="-62.6" font-family="Times,serif" font-size="14.00">DialogErrorEmailComponent</text>
</g>
<!-- DialogErrorEmailComponent&#45;&gt;SharedModule -->
<g id="edge4" class="edge">
<title>DialogErrorEmailComponent&#45;&gt;SharedModule</title>
<path fill="none" stroke="black" d="M1532.48,-85.08C1532.48,-100.75 1532.48,-120.8 1532.48,-120.8 1532.48,-120.8 1139.29,-120.8 1139.29,-120.8"/>
<polygon fill="black" stroke="black" points="1139.29,-117.3 1129.29,-120.8 1139.29,-124.3 1139.29,-117.3"/>
</g>
<!-- DialogYesNoComponent -->
<g id="node5" class="node">
<title>DialogYesNoComponent</title>
<polygon fill="#ffffb3" stroke="black" points="1392.32,-84.8 1233.68,-84.8 1233.68,-48.8 1392.32,-48.8 1392.32,-84.8"/>
<text text-anchor="middle" x="1313" y="-62.6" font-family="Times,serif" font-size="14.00">DialogYesNoComponent</text>
</g>
<!-- DialogYesNoComponent&#45;&gt;SharedModule -->
<g id="edge5" class="edge">
<title>DialogYesNoComponent&#45;&gt;SharedModule</title>
<path fill="none" stroke="black" d="M1339.39,-84.92C1339.39,-99.58 1339.39,-117.8 1339.39,-117.8 1339.39,-117.8 1139.4,-117.8 1139.4,-117.8"/>
<polygon fill="black" stroke="black" points="1139.4,-114.3 1129.4,-117.8 1139.4,-121.3 1139.4,-114.3"/>
</g>
<!-- SearchBarComponent -->
<g id="node6" class="node">
<title>SearchBarComponent</title>
<polygon fill="#ffffb3" stroke="black" points="1215.64,-84.8 1076.36,-84.8 1076.36,-48.8 1215.64,-48.8 1215.64,-84.8"/>
<text text-anchor="middle" x="1146" y="-62.6" font-family="Times,serif" font-size="14.00">SearchBarComponent</text>
</g>
<!-- SearchBarComponent&#45;&gt;SharedModule -->
<g id="edge6" class="edge">
<title>SearchBarComponent&#45;&gt;SharedModule</title>
<path fill="none" stroke="black" d="M1102.7,-84.91C1102.7,-84.91 1102.7,-103.79 1102.7,-103.79"/>
<polygon fill="black" stroke="black" points="1099.2,-103.79 1102.7,-113.79 1106.2,-103.79 1099.2,-103.79"/>
</g>
<!-- SidenavItemComponent -->
<g id="node7" class="node">
<title>SidenavItemComponent</title>
<polygon fill="#ffffb3" stroke="black" points="1058.09,-84.8 905.91,-84.8 905.91,-48.8 1058.09,-48.8 1058.09,-84.8"/>
<text text-anchor="middle" x="982" y="-62.6" font-family="Times,serif" font-size="14.00">SidenavItemComponent</text>
</g>
<!-- SidenavItemComponent&#45;&gt;SharedModule -->
<g id="edge7" class="edge">
<title>SidenavItemComponent&#45;&gt;SharedModule</title>
<path fill="none" stroke="black" d="M1044.42,-84.91C1044.42,-84.91 1044.42,-103.79 1044.42,-103.79"/>
<polygon fill="black" stroke="black" points="1040.92,-103.79 1044.42,-113.79 1047.92,-103.79 1040.92,-103.79"/>
</g>
<!-- SidenavUserInfoComponent -->
<g id="node8" class="node">
<title>SidenavUserInfoComponent</title>
<polygon fill="#ffffb3" stroke="black" points="888.19,-84.8 711.81,-84.8 711.81,-48.8 888.19,-48.8 888.19,-84.8"/>
<text text-anchor="middle" x="800" y="-62.6" font-family="Times,serif" font-size="14.00">SidenavUserInfoComponent</text>
</g>
<!-- SidenavUserInfoComponent&#45;&gt;SharedModule -->
<g id="edge8" class="edge">
<title>SidenavUserInfoComponent&#45;&gt;SharedModule</title>
<path fill="none" stroke="black" d="M829.15,-84.92C829.15,-99.58 829.15,-117.8 829.15,-117.8 829.15,-117.8 1020.74,-117.8 1020.74,-117.8"/>
<polygon fill="black" stroke="black" points="1020.74,-121.3 1030.74,-117.8 1020.74,-114.3 1020.74,-121.3"/>
</g>
<!-- SteperComponent -->
<g id="node9" class="node">
<title>SteperComponent</title>
<polygon fill="#ffffb3" stroke="black" points="693.6,-84.8 576.4,-84.8 576.4,-48.8 693.6,-48.8 693.6,-84.8"/>
<text text-anchor="middle" x="635" y="-62.6" font-family="Times,serif" font-size="14.00">SteperComponent</text>
</g>
<!-- SteperComponent&#45;&gt;SharedModule -->
<g id="edge9" class="edge">
<title>SteperComponent&#45;&gt;SharedModule</title>
<path fill="none" stroke="black" d="M635,-85.08C635,-100.75 635,-120.8 635,-120.8 635,-120.8 1020.68,-120.8 1020.68,-120.8"/>
<polygon fill="black" stroke="black" points="1020.68,-124.3 1030.68,-120.8 1020.68,-117.3 1020.68,-124.3"/>
</g>
<!-- TooltipRedSmallComponent -->
<g id="node10" class="node">
<title>TooltipRedSmallComponent</title>
<polygon fill="#ffffb3" stroke="black" points="558.77,-84.8 381.23,-84.8 381.23,-48.8 558.77,-48.8 558.77,-84.8"/>
<text text-anchor="middle" x="470" y="-62.6" font-family="Times,serif" font-size="14.00">TooltipRedSmallComponent</text>
</g>
<!-- TooltipRedSmallComponent&#45;&gt;SharedModule -->
<g id="edge10" class="edge">
<title>TooltipRedSmallComponent&#45;&gt;SharedModule</title>
<path fill="none" stroke="black" d="M473.9,-84.84C473.9,-101.53 473.9,-123.8 473.9,-123.8 473.9,-123.8 1020.66,-123.8 1020.66,-123.8"/>
<polygon fill="black" stroke="black" points="1020.66,-127.3 1030.66,-123.8 1020.66,-120.3 1020.66,-127.3"/>
</g>
<!-- TooltipWhiteSmallComponent -->
<g id="node11" class="node">
<title>TooltipWhiteSmallComponent</title>
<polygon fill="#ffffb3" stroke="black" points="362.93,-84.8 173.07,-84.8 173.07,-48.8 362.93,-48.8 362.93,-84.8"/>
<text text-anchor="middle" x="268" y="-62.6" font-family="Times,serif" font-size="14.00">TooltipWhiteSmallComponent</text>
</g>
<!-- TooltipWhiteSmallComponent&#45;&gt;SharedModule -->
<g id="edge11" class="edge">
<title>TooltipWhiteSmallComponent&#45;&gt;SharedModule</title>
<path fill="none" stroke="black" d="M298.54,-85.1C298.54,-103.07 298.54,-127.8 298.54,-127.8 298.54,-127.8 1020.52,-127.8 1020.52,-127.8"/>
<polygon fill="black" stroke="black" points="1020.52,-131.3 1030.52,-127.8 1020.52,-124.3 1020.52,-131.3"/>
</g>
<!-- Button  -->
<g id="node14" class="node">
<title>Button </title>
<polygon fill="#fb8072" stroke="black" points="2054.62,-214.8 1997.38,-214.8 1997.38,-178.8 2054.62,-178.8 2054.62,-214.8"/>
<text text-anchor="middle" x="2026" y="-192.6" font-family="Times,serif" font-size="14.00">Button </text>
</g>
<!-- SharedModule&#45;&gt;Button  -->
<g id="edge13" class="edge">
<title>SharedModule&#45;&gt;Button </title>
<path fill="none" stroke="black" stroke-dasharray="5,2" d="M1129.37,-133.8C1322.54,-133.8 2016.62,-133.8 2016.62,-133.8 2016.62,-133.8 2016.62,-168.58 2016.62,-168.58"/>
<polygon fill="black" stroke="black" points="2013.13,-168.58 2016.62,-178.58 2020.13,-168.58 2013.13,-168.58"/>
</g>
<!-- ButtonCustomizedComponent  -->
<g id="node15" class="node">
<title>ButtonCustomizedComponent </title>
<polygon fill="#fb8072" stroke="black" points="1978.83,-214.8 1789.17,-214.8 1789.17,-178.8 1978.83,-178.8 1978.83,-214.8"/>
<text text-anchor="middle" x="1884" y="-192.6" font-family="Times,serif" font-size="14.00">ButtonCustomizedComponent </text>
</g>
<!-- SharedModule&#45;&gt;ButtonCustomizedComponent  -->
<g id="edge14" class="edge">
<title>SharedModule&#45;&gt;ButtonCustomizedComponent </title>
<path fill="none" stroke="black" stroke-dasharray="5,2" d="M1129.23,-136.8C1302.91,-136.8 1876.62,-136.8 1876.62,-136.8 1876.62,-136.8 1876.62,-168.8 1876.62,-168.8"/>
<polygon fill="black" stroke="black" points="1873.13,-168.8 1876.62,-178.8 1880.13,-168.8 1873.13,-168.8"/>
</g>
<!-- ButtonFormComponent  -->
<g id="node16" class="node">
<title>ButtonFormComponent </title>
<polygon fill="#fb8072" stroke="black" points="1770.79,-214.8 1617.21,-214.8 1617.21,-178.8 1770.79,-178.8 1770.79,-214.8"/>
<text text-anchor="middle" x="1694" y="-192.6" font-family="Times,serif" font-size="14.00">ButtonFormComponent </text>
</g>
<!-- SharedModule&#45;&gt;ButtonFormComponent  -->
<g id="edge15" class="edge">
<title>SharedModule&#45;&gt;ButtonFormComponent </title>
<path fill="none" stroke="black" stroke-dasharray="5,2" d="M1129.29,-140.8C1274.18,-140.8 1688.62,-140.8 1688.62,-140.8 1688.62,-140.8 1688.62,-168.77 1688.62,-168.77"/>
<polygon fill="black" stroke="black" points="1685.13,-168.77 1688.62,-178.77 1692.13,-168.77 1685.13,-168.77"/>
</g>
<!-- DialogErrorEmailComponent  -->
<g id="node17" class="node">
<title>DialogErrorEmailComponent </title>
<polygon fill="#fb8072" stroke="black" points="1598.91,-214.8 1413.09,-214.8 1413.09,-178.8 1598.91,-178.8 1598.91,-214.8"/>
<text text-anchor="middle" x="1506" y="-192.6" font-family="Times,serif" font-size="14.00">DialogErrorEmailComponent </text>
</g>
<!-- SharedModule&#45;&gt;DialogErrorEmailComponent  -->
<g id="edge16" class="edge">
<title>SharedModule&#45;&gt;DialogErrorEmailComponent </title>
<path fill="none" stroke="black" stroke-dasharray="5,2" d="M1129.35,-143.8C1234.84,-143.8 1472.77,-143.8 1472.77,-143.8 1472.77,-143.8 1472.77,-168.56 1472.77,-168.56"/>
<polygon fill="black" stroke="black" points="1469.27,-168.56 1472.77,-178.56 1476.27,-168.56 1469.27,-168.56"/>
</g>
<!-- DialogYesNoComponent  -->
<g id="node18" class="node">
<title>DialogYesNoComponent </title>
<polygon fill="#fb8072" stroke="black" points="1394.82,-214.8 1233.18,-214.8 1233.18,-178.8 1394.82,-178.8 1394.82,-214.8"/>
<text text-anchor="middle" x="1314" y="-192.6" font-family="Times,serif" font-size="14.00">DialogYesNoComponent </text>
</g>
<!-- SharedModule&#45;&gt;DialogYesNoComponent  -->
<g id="edge17" class="edge">
<title>SharedModule&#45;&gt;DialogYesNoComponent </title>
<path fill="none" stroke="black" stroke-dasharray="5,2" d="M1129.23,-146.8C1190.34,-146.8 1286.61,-146.8 1286.61,-146.8 1286.61,-146.8 1286.61,-168.75 1286.61,-168.75"/>
<polygon fill="black" stroke="black" points="1283.11,-168.75 1286.61,-178.75 1290.11,-168.75 1283.11,-168.75"/>
</g>
<!-- MaterialModule  -->
<g id="node19" class="node">
<title>MaterialModule </title>
<polygon fill="#fb8072" stroke="black" points="1215.47,-214.8 1104.53,-214.8 1104.53,-178.8 1215.47,-178.8 1215.47,-214.8"/>
<text text-anchor="middle" x="1160" y="-192.6" font-family="Times,serif" font-size="14.00">MaterialModule </text>
</g>
<!-- SharedModule&#45;&gt;MaterialModule  -->
<g id="edge18" class="edge">
<title>SharedModule&#45;&gt;MaterialModule </title>
<path fill="none" stroke="black" stroke-dasharray="5,2" d="M1116.99,-149.91C1116.99,-149.91 1116.99,-168.79 1116.99,-168.79"/>
<polygon fill="black" stroke="black" points="1113.49,-168.79 1116.99,-178.79 1120.49,-168.79 1113.49,-168.79"/>
</g>
<!-- SearchBarComponent  -->
<g id="node20" class="node">
<title>SearchBarComponent </title>
<polygon fill="#fb8072" stroke="black" points="1086.63,-214.8 943.37,-214.8 943.37,-178.8 1086.63,-178.8 1086.63,-214.8"/>
<text text-anchor="middle" x="1015" y="-192.6" font-family="Times,serif" font-size="14.00">SearchBarComponent </text>
</g>
<!-- SharedModule&#45;&gt;SearchBarComponent  -->
<g id="edge19" class="edge">
<title>SharedModule&#45;&gt;SearchBarComponent </title>
<path fill="none" stroke="black" stroke-dasharray="5,2" d="M1058.68,-149.91C1058.68,-149.91 1058.68,-168.79 1058.68,-168.79"/>
<polygon fill="black" stroke="black" points="1055.18,-168.79 1058.68,-178.79 1062.18,-168.79 1055.18,-168.79"/>
</g>
<!-- SidenavItemComponent  -->
<g id="node21" class="node">
<title>SidenavItemComponent </title>
<polygon fill="#fb8072" stroke="black" points="925.59,-214.8 770.41,-214.8 770.41,-178.8 925.59,-178.8 925.59,-214.8"/>
<text text-anchor="middle" x="848" y="-192.6" font-family="Times,serif" font-size="14.00">SidenavItemComponent </text>
</g>
<!-- SharedModule&#45;&gt;SidenavItemComponent  -->
<g id="edge20" class="edge">
<title>SharedModule&#45;&gt;SidenavItemComponent </title>
<path fill="none" stroke="black" stroke-dasharray="5,2" d="M1030.76,-146.8C982.41,-146.8 915.88,-146.8 915.88,-146.8 915.88,-146.8 915.88,-168.75 915.88,-168.75"/>
<polygon fill="black" stroke="black" points="912.38,-168.75 915.88,-178.75 919.38,-168.75 912.38,-168.75"/>
</g>
<!-- SidenavUserInfoComponent  -->
<g id="node22" class="node">
<title>SidenavUserInfoComponent </title>
<polygon fill="#fb8072" stroke="black" points="751.69,-214.8 572.31,-214.8 572.31,-178.8 751.69,-178.8 751.69,-214.8"/>
<text text-anchor="middle" x="662" y="-192.6" font-family="Times,serif" font-size="14.00">SidenavUserInfoComponent </text>
</g>
<!-- SharedModule&#45;&gt;SidenavUserInfoComponent  -->
<g id="edge21" class="edge">
<title>SharedModule&#45;&gt;SidenavUserInfoComponent </title>
<path fill="none" stroke="black" stroke-dasharray="5,2" d="M1030.49,-143.8C934.38,-143.8 731.88,-143.8 731.88,-143.8 731.88,-143.8 731.88,-168.56 731.88,-168.56"/>
<polygon fill="black" stroke="black" points="728.38,-168.56 731.88,-178.56 735.38,-168.56 728.38,-168.56"/>
</g>
<!-- SteperComponent  -->
<g id="node23" class="node">
<title>SteperComponent </title>
<polygon fill="#fb8072" stroke="black" points="554.1,-214.8 433.9,-214.8 433.9,-178.8 554.1,-178.8 554.1,-214.8"/>
<text text-anchor="middle" x="494" y="-192.6" font-family="Times,serif" font-size="14.00">SteperComponent </text>
</g>
<!-- SharedModule&#45;&gt;SteperComponent  -->
<g id="edge22" class="edge">
<title>SharedModule&#45;&gt;SteperComponent </title>
<path fill="none" stroke="black" stroke-dasharray="5,2" d="M1030.77,-140.8C893.09,-140.8 514.1,-140.8 514.1,-140.8 514.1,-140.8 514.1,-168.77 514.1,-168.77"/>
<polygon fill="black" stroke="black" points="510.6,-168.77 514.1,-178.77 517.6,-168.77 510.6,-168.77"/>
</g>
<!-- TooltipRedSmallComponent  -->
<g id="node24" class="node">
<title>TooltipRedSmallComponent </title>
<polygon fill="#fb8072" stroke="black" points="415.77,-214.8 234.23,-214.8 234.23,-178.8 415.77,-178.8 415.77,-214.8"/>
<text text-anchor="middle" x="325" y="-192.6" font-family="Times,serif" font-size="14.00">TooltipRedSmallComponent </text>
</g>
<!-- SharedModule&#45;&gt;TooltipRedSmallComponent  -->
<g id="edge23" class="edge">
<title>SharedModule&#45;&gt;TooltipRedSmallComponent </title>
<path fill="none" stroke="black" stroke-dasharray="5,2" d="M1030.71,-136.8C874.13,-136.8 398.38,-136.8 398.38,-136.8 398.38,-136.8 398.38,-168.8 398.38,-168.8"/>
<polygon fill="black" stroke="black" points="394.88,-168.8 398.38,-178.8 401.88,-168.8 394.88,-168.8"/>
</g>
<!-- TooltipWhiteSmallComponent  -->
<g id="node25" class="node">
<title>TooltipWhiteSmallComponent </title>
<polygon fill="#fb8072" stroke="black" points="216.43,-214.8 23.57,-214.8 23.57,-178.8 216.43,-178.8 216.43,-214.8"/>
<text text-anchor="middle" x="120" y="-192.6" font-family="Times,serif" font-size="14.00">TooltipWhiteSmallComponent </text>
</g>
<!-- SharedModule&#45;&gt;TooltipWhiteSmallComponent  -->
<g id="edge24" class="edge">
<title>SharedModule&#45;&gt;TooltipWhiteSmallComponent </title>
<path fill="none" stroke="black" stroke-dasharray="5,2" d="M1030.52,-133.8C844.11,-133.8 194.88,-133.8 194.88,-133.8 194.88,-133.8 194.88,-168.58 194.88,-168.58"/>
<polygon fill="black" stroke="black" points="191.38,-168.58 194.88,-178.58 198.38,-168.58 191.38,-168.58"/>
</g>
<!-- MaterialModule -->
<g id="node13" class="node">
<title>MaterialModule</title>
<polygon fill="#8dd3c7" stroke="black" points="149.47,-84.8 146.47,-88.8 125.47,-88.8 122.47,-84.8 42.53,-84.8 42.53,-48.8 149.47,-48.8 149.47,-84.8"/>
<text text-anchor="middle" x="96" y="-62.6" font-family="Times,serif" font-size="14.00">MaterialModule</text>
</g>
<!-- MaterialModule&#45;&gt;SharedModule -->
<g id="edge12" class="edge">
<title>MaterialModule&#45;&gt;SharedModule</title>
<path fill="none" stroke="black" d="M96,-84.97C96,-103.89 96,-130.8 96,-130.8 96,-130.8 1020.53,-130.8 1020.53,-130.8"/>
<polygon fill="black" stroke="black" points="1020.53,-134.3 1030.53,-130.8 1020.53,-127.3 1020.53,-134.3"/>
</g>
</g>
</svg>
