<?xml version="1.0" encoding="UTF-8" standalone="no"?>
<!DOCTYPE svg PUBLIC "-//W3C//DTD SVG 1.1//EN"
 "http://www.w3.org/Graphics/SVG/1.1/DTD/svg11.dtd">
<!-- Generated by graphviz version 3.0.0 (20220226.1711)
 -->
<!-- Title: dependencies Pages: 1 -->
<svg width="1114pt" height="174pt"
 viewBox="0.00 0.00 1114.00 173.80" xmlns="http://www.w3.org/2000/svg" xmlns:xlink="http://www.w3.org/1999/xlink">
<g id="graph0" class="graph" transform="scale(1 1) rotate(0) translate(4 169.8)">
<title>dependencies</title>
<polygon fill="white" stroke="transparent" points="-4,4 -4,-169.8 1110,-169.8 1110,4 -4,4"/>
<text text-anchor="middle" x="553" y="-8.2" font-family="sans-serif" font-size="14.00">dependencies</text>
<g id="clust1" class="cluster">
<title>cluster_UserDataPostulationModule</title>
<polygon fill="none" stroke="black" stroke-dasharray="1,5" points="8,-32.8 8,-157.8 1098,-157.8 1098,-32.8 8,-32.8"/>
</g>
<g id="clust7" class="cluster">
<title>cluster_UserDataPostulationModule_imports</title>
<polygon fill="none" stroke="black" points="738,-40.8 738,-92.8 1090,-92.8 1090,-40.8 738,-40.8"/>
</g>
<g id="clust2" class="cluster">
<title>cluster_UserDataPostulationModule_declarations</title>
<polygon fill="none" stroke="black" points="16,-40.8 16,-92.8 730,-92.8 730,-40.8 16,-40.8"/>
</g>
<!-- FillFileComponent -->
<g id="node1" class="node">
<title>FillFileComponent</title>
<polygon fill="#ffffb3" stroke="black" points="722.07,-84.8 599.93,-84.8 599.93,-48.8 722.07,-48.8 722.07,-84.8"/>
<text text-anchor="middle" x="661" y="-62.6" font-family="Times,serif" font-size="14.00">FillFileComponent</text>
</g>
<!-- UserDataPostulationModule -->
<g id="node5" class="node">
<title>UserDataPostulationModule</title>
<polygon fill="#8dd3c7" stroke="black" points="671.92,-149.8 668.92,-153.8 647.92,-153.8 644.92,-149.8 496.08,-149.8 496.08,-113.8 671.92,-113.8 671.92,-149.8"/>
<text text-anchor="middle" x="584" y="-127.6" font-family="Times,serif" font-size="14.00">UserDataPostulationModule</text>
</g>
<!-- FillFileComponent&#45;&gt;UserDataPostulationModule -->
<g id="edge1" class="edge">
<title>FillFileComponent&#45;&gt;UserDataPostulationModule</title>
<path fill="none" stroke="black" d="M635.71,-84.91C635.71,-84.91 635.71,-103.79 635.71,-103.79"/>
<polygon fill="black" stroke="black" points="632.21,-103.79 635.71,-113.79 639.21,-103.79 632.21,-103.79"/>
</g>
<!-- UploadFilesComponent -->
<g id="node2" class="node">
<title>UploadFilesComponent</title>
<polygon fill="#ffffb3" stroke="black" points="581.77,-84.8 432.23,-84.8 432.23,-48.8 581.77,-48.8 581.77,-84.8"/>
<text text-anchor="middle" x="507" y="-62.6" font-family="Times,serif" font-size="14.00">UploadFilesComponent</text>
</g>
<!-- UploadFilesComponent&#45;&gt;UserDataPostulationModule -->
<g id="edge2" class="edge">
<title>UploadFilesComponent&#45;&gt;UserDataPostulationModule</title>
<path fill="none" stroke="black" d="M539.09,-84.91C539.09,-84.91 539.09,-103.79 539.09,-103.79"/>
<polygon fill="black" stroke="black" points="535.59,-103.79 539.09,-113.79 542.59,-103.79 535.59,-103.79"/>
</g>
<!-- UserDataPostulationBodyComponent -->
<g id="node3" class="node">
<title>UserDataPostulationBodyComponent</title>
<polygon fill="#ffffb3" stroke="black" points="413.54,-84.8 186.46,-84.8 186.46,-48.8 413.54,-48.8 413.54,-84.8"/>
<text text-anchor="middle" x="300" y="-62.6" font-family="Times,serif" font-size="14.00">UserDataPostulationBodyComponent</text>
</g>
<!-- UserDataPostulationBodyComponent&#45;&gt;UserDataPostulationModule -->
<g id="edge3" class="edge">
<title>UserDataPostulationBodyComponent&#45;&gt;UserDataPostulationModule</title>
<path fill="none" stroke="black" d="M300,-84.82C300,-102.17 300,-125.8 300,-125.8 300,-125.8 486.09,-125.8 486.09,-125.8"/>
<polygon fill="black" stroke="black" points="486.09,-129.3 496.09,-125.8 486.09,-122.3 486.09,-129.3"/>
</g>
<!-- VerifyDataComponent -->
<g id="node4" class="node">
<title>VerifyDataComponent</title>
<polygon fill="#ffffb3" stroke="black" points="168.3,-84.8 23.7,-84.8 23.7,-48.8 168.3,-48.8 168.3,-84.8"/>
<text text-anchor="middle" x="96" y="-62.6" font-family="Times,serif" font-size="14.00">VerifyDataComponent</text>
</g>
<!-- VerifyDataComponent&#45;&gt;UserDataPostulationModule -->
<g id="edge4" class="edge">
<title>VerifyDataComponent&#45;&gt;UserDataPostulationModule</title>
<path fill="none" stroke="black" d="M96,-85.08C96,-106.12 96,-137.8 96,-137.8 96,-137.8 486.19,-137.8 486.19,-137.8"/>
<polygon fill="black" stroke="black" points="486.19,-141.3 496.19,-137.8 486.19,-134.3 486.19,-141.3"/>
</g>
<!-- SharedModule -->
<g id="node6" class="node">
<title>SharedModule</title>
<polygon fill="#8dd3c7" stroke="black" points="1082.43,-84.8 1079.43,-88.8 1058.43,-88.8 1055.43,-84.8 983.57,-84.8 983.57,-48.8 1082.43,-48.8 1082.43,-84.8"/>
<text text-anchor="middle" x="1033" y="-62.6" font-family="Times,serif" font-size="14.00">SharedModule</text>
</g>
<!-- SharedModule&#45;&gt;UserDataPostulationModule -->
<g id="edge5" class="edge">
<title>SharedModule&#45;&gt;UserDataPostulationModule</title>
<path fill="none" stroke="black" d="M1033,-85.08C1033,-106.12 1033,-137.8 1033,-137.8 1033,-137.8 681.9,-137.8 681.9,-137.8"/>
<polygon fill="black" stroke="black" points="681.9,-134.3 671.9,-137.8 681.9,-141.3 681.9,-134.3"/>
</g>
<!-- UserDataPostulationRoutingModule -->
<g id="node7" class="node">
<title>UserDataPostulationRoutingModule</title>
<polygon fill="#8dd3c7" stroke="black" points="966.04,-84.8 963.04,-88.8 942.04,-88.8 939.04,-84.8 745.96,-84.8 745.96,-48.8 966.04,-48.8 966.04,-84.8"/>
<text text-anchor="middle" x="856" y="-62.6" font-family="Times,serif" font-size="14.00">UserDataPostulationRoutingModule</text>
</g>
<!-- UserDataPostulationRoutingModule&#45;&gt;UserDataPostulationModule -->
<g id="edge6" class="edge">
<title>UserDataPostulationRoutingModule&#45;&gt;UserDataPostulationModule</title>
<path fill="none" stroke="black" d="M856,-84.82C856,-102.17 856,-125.8 856,-125.8 856,-125.8 681.93,-125.8 681.93,-125.8"/>
<polygon fill="black" stroke="black" points="681.94,-122.3 671.93,-125.8 681.93,-129.3 681.94,-122.3"/>
</g>
</g>
</svg>
