<?xml version="1.0" encoding="UTF-8" standalone="no"?>
<!DOCTYPE svg PUBLIC "-//W3C//DTD SVG 1.1//EN"
 "http://www.w3.org/Graphics/SVG/1.1/DTD/svg11.dtd">
<!-- Generated by graphviz version 5.0.0 (20220707.1540)
 -->
<!-- Title: dependencies Pages: 1 -->
<svg width="1114pt" height="174pt"
 viewBox="0.00 0.00 1114.00 173.80" xmlns="http://www.w3.org/2000/svg" xmlns:xlink="http://www.w3.org/1999/xlink">
<g id="graph0" class="graph" transform="scale(1 1) rotate(0) translate(4 169.8)">
<title>dependencies</title>
<polygon fill="white" stroke="transparent" points="-4,4 -4,-169.8 1110,-169.8 1110,4 -4,4"/>
<text text-anchor="middle" x="553" y="-8.2" font-family="sans-serif" font-size="14.00">dependencies</text>
<g id="clust1" class="cluster">
<title>cluster_UserDataPostulationModule</title>
<polygon fill="none" stroke="black" stroke-dasharray="1,5" points="8,-32.8 8,-157.8 1098,-157.8 1098,-32.8 8,-32.8"/>
</g>
<g id="clust2" class="cluster">
<title>cluster_UserDataPostulationModule_declarations</title>
<polygon fill="none" stroke="black" points="376,-40.8 376,-92.8 1090,-92.8 1090,-40.8 376,-40.8"/>
</g>
<g id="clust7" class="cluster">
<title>cluster_UserDataPostulationModule_imports</title>
<polygon fill="none" stroke="black" points="16,-40.8 16,-92.8 368,-92.8 368,-40.8 16,-40.8"/>
</g>
<!-- FillFileComponent -->
<g id="node1" class="node">
<title>FillFileComponent</title>
<polygon fill="#ffffb3" stroke="black" points="1082.07,-84.8 959.93,-84.8 959.93,-48.8 1082.07,-48.8 1082.07,-84.8"/>
<text text-anchor="middle" x="1021" y="-62.6" font-family="Times,serif" font-size="14.00">FillFileComponent</text>
</g>
<!-- UserDataPostulationModule -->
<g id="node5" class="node">
<title>UserDataPostulationModule</title>
<polygon fill="#8dd3c7" stroke="black" points="645.92,-149.8 642.92,-153.8 621.92,-153.8 618.92,-149.8 470.08,-149.8 470.08,-113.8 645.92,-113.8 645.92,-149.8"/>
<text text-anchor="middle" x="558" y="-127.6" font-family="Times,serif" font-size="14.00">UserDataPostulationModule</text>
</g>
<!-- FillFileComponent&#45;&gt;UserDataPostulationModule -->
<g id="edge1" class="edge">
<title>FillFileComponent&#45;&gt;UserDataPostulationModule</title>
<path fill="none" stroke="black" d="M1021,-85.08C1021,-106.12 1021,-137.8 1021,-137.8 1021,-137.8 655.9,-137.8 655.9,-137.8"/>
<polygon fill="black" stroke="black" points="655.9,-134.3 645.9,-137.8 655.9,-141.3 655.9,-134.3"/>
</g>
<!-- UploadFilesComponent -->
<g id="node2" class="node">
<title>UploadFilesComponent</title>
<polygon fill="#ffffb3" stroke="black" points="941.77,-84.8 792.23,-84.8 792.23,-48.8 941.77,-48.8 941.77,-84.8"/>
<text text-anchor="middle" x="867" y="-62.6" font-family="Times,serif" font-size="14.00">UploadFilesComponent</text>
</g>
<!-- UploadFilesComponent&#45;&gt;UserDataPostulationModule -->
<g id="edge2" class="edge">
<title>UploadFilesComponent&#45;&gt;UserDataPostulationModule</title>
<path fill="none" stroke="black" d="M867,-84.82C867,-102.17 867,-125.8 867,-125.8 867,-125.8 655.72,-125.8 655.72,-125.8"/>
<polygon fill="black" stroke="black" points="655.72,-122.3 645.72,-125.8 655.72,-129.3 655.72,-122.3"/>
</g>
<!-- UserDataPostulationBodyComponent -->
<g id="node3" class="node">
<title>UserDataPostulationBodyComponent</title>
<polygon fill="#ffffb3" stroke="black" points="773.54,-84.8 546.46,-84.8 546.46,-48.8 773.54,-48.8 773.54,-84.8"/>
<text text-anchor="middle" x="660" y="-62.6" font-family="Times,serif" font-size="14.00">UserDataPostulationBodyComponent</text>
</g>
<!-- UserDataPostulationBodyComponent&#45;&gt;UserDataPostulationModule -->
<g id="edge3" class="edge">
<title>UserDataPostulationBodyComponent&#45;&gt;UserDataPostulationModule</title>
<path fill="none" stroke="black" d="M595.97,-84.91C595.97,-84.91 595.97,-103.79 595.97,-103.79"/>
<polygon fill="black" stroke="black" points="592.47,-103.79 595.97,-113.79 599.47,-103.79 592.47,-103.79"/>
</g>
<!-- VerifyDataComponent -->
<g id="node4" class="node">
<title>VerifyDataComponent</title>
<polygon fill="#ffffb3" stroke="black" points="528.3,-84.8 383.7,-84.8 383.7,-48.8 528.3,-48.8 528.3,-84.8"/>
<text text-anchor="middle" x="456" y="-62.6" font-family="Times,serif" font-size="14.00">VerifyDataComponent</text>
</g>
<!-- VerifyDataComponent&#45;&gt;UserDataPostulationModule -->
<g id="edge4" class="edge">
<title>VerifyDataComponent&#45;&gt;UserDataPostulationModule</title>
<path fill="none" stroke="black" d="M499.22,-84.91C499.22,-84.91 499.22,-103.79 499.22,-103.79"/>
<polygon fill="black" stroke="black" points="495.72,-103.79 499.22,-113.79 502.72,-103.79 495.72,-103.79"/>
</g>
<!-- SharedModule -->
<g id="node6" class="node">
<title>SharedModule</title>
<polygon fill="#8dd3c7" stroke="black" points="360.43,-84.8 357.43,-88.8 336.43,-88.8 333.43,-84.8 261.57,-84.8 261.57,-48.8 360.43,-48.8 360.43,-84.8"/>
<text text-anchor="middle" x="311" y="-62.6" font-family="Times,serif" font-size="14.00">SharedModule</text>
</g>
<!-- SharedModule&#45;&gt;UserDataPostulationModule -->
<g id="edge5" class="edge">
<title>SharedModule&#45;&gt;UserDataPostulationModule</title>
<path fill="none" stroke="black" d="M311,-84.82C311,-102.17 311,-125.8 311,-125.8 311,-125.8 460.22,-125.8 460.22,-125.8"/>
<polygon fill="black" stroke="black" points="460.22,-129.3 470.22,-125.8 460.22,-122.3 460.22,-129.3"/>
</g>
<!-- UserDataPostulationRoutingModule -->
<g id="node7" class="node">
<title>UserDataPostulationRoutingModule</title>
<polygon fill="#8dd3c7" stroke="black" points="244.04,-84.8 241.04,-88.8 220.04,-88.8 217.04,-84.8 23.96,-84.8 23.96,-48.8 244.04,-48.8 244.04,-84.8"/>
<text text-anchor="middle" x="134" y="-62.6" font-family="Times,serif" font-size="14.00">UserDataPostulationRoutingModule</text>
</g>
<!-- UserDataPostulationRoutingModule&#45;&gt;UserDataPostulationModule -->
<g id="edge6" class="edge">
<title>UserDataPostulationRoutingModule&#45;&gt;UserDataPostulationModule</title>
<path fill="none" stroke="black" d="M134,-85.08C134,-106.12 134,-137.8 134,-137.8 134,-137.8 460.15,-137.8 460.15,-137.8"/>
<polygon fill="black" stroke="black" points="460.15,-141.3 470.15,-137.8 460.15,-134.3 460.15,-141.3"/>
</g>
</g>
</svg>
