<?xml version="1.0" encoding="UTF-8" standalone="no"?>
<!DOCTYPE svg PUBLIC "-//W3C//DTD SVG 1.1//EN"
 "http://www.w3.org/Graphics/SVG/1.1/DTD/svg11.dtd">
<!-- Generated by graphviz version 5.0.0 (20220707.1540)
 -->
<!-- Title: dependencies Pages: 1 -->
<svg width="718pt" height="174pt"
 viewBox="0.00 0.00 718.00 173.80" xmlns="http://www.w3.org/2000/svg" xmlns:xlink="http://www.w3.org/1999/xlink">
<g id="graph0" class="graph" transform="scale(1 1) rotate(0) translate(4 169.8)">
<title>dependencies</title>
<polygon fill="white" stroke="transparent" points="-4,4 -4,-169.8 714,-169.8 714,4 -4,4"/>
<text text-anchor="middle" x="355" y="-8.2" font-family="sans-serif" font-size="14.00">dependencies</text>
<g id="clust1" class="cluster">
<title>cluster_AdminModule</title>
<polygon fill="none" stroke="black" stroke-dasharray="1,5" points="8,-32.8 8,-157.8 702,-157.8 702,-32.8 8,-32.8"/>
</g>
<g id="clust6" class="cluster">
<title>cluster_AdminModule_imports</title>
<polygon fill="none" stroke="black" points="534,-40.8 534,-92.8 694,-92.8 694,-40.8 534,-40.8"/>
</g>
<g id="clust2" class="cluster">
<title>cluster_AdminModule_declarations</title>
<polygon fill="none" stroke="black" points="16,-40.8 16,-92.8 526,-92.8 526,-40.8 16,-40.8"/>
</g>
<!-- AdminBodyComponent -->
<g id="node1" class="node">
<title>AdminBodyComponent</title>
<polygon fill="#ffffb3" stroke="black" points="518.06,-84.8 367.94,-84.8 367.94,-48.8 518.06,-48.8 518.06,-84.8"/>
<text text-anchor="middle" x="443" y="-62.6" font-family="Times,serif" font-size="14.00">AdminBodyComponent</text>
</g>
<!-- AdminModule -->
<g id="node4" class="node">
<title>AdminModule</title>
<polygon fill="#8dd3c7" stroke="black" points="407.44,-149.8 404.44,-153.8 383.44,-153.8 380.44,-149.8 308.56,-149.8 308.56,-113.8 407.44,-113.8 407.44,-149.8"/>
<text text-anchor="middle" x="358" y="-127.6" font-family="Times,serif" font-size="14.00">AdminModule</text>
</g>
<!-- AdminBodyComponent&#45;&gt;AdminModule -->
<g id="edge1" class="edge">
<title>AdminBodyComponent&#45;&gt;AdminModule</title>
<path fill="none" stroke="black" d="M387.47,-84.91C387.47,-84.91 387.47,-103.79 387.47,-103.79"/>
<polygon fill="black" stroke="black" points="383.97,-103.79 387.47,-113.79 390.97,-103.79 383.97,-103.79"/>
</g>
<!-- AdminHomeComponent -->
<g id="node2" class="node">
<title>AdminHomeComponent</title>
<polygon fill="#ffffb3" stroke="black" points="350.44,-84.8 195.56,-84.8 195.56,-48.8 350.44,-48.8 350.44,-84.8"/>
<text text-anchor="middle" x="273" y="-62.6" font-family="Times,serif" font-size="14.00">AdminHomeComponent</text>
</g>
<!-- AdminHomeComponent&#45;&gt;AdminModule -->
<g id="edge2" class="edge">
<title>AdminHomeComponent&#45;&gt;AdminModule</title>
<path fill="none" stroke="black" d="M329.5,-84.91C329.5,-84.91 329.5,-103.79 329.5,-103.79"/>
<polygon fill="black" stroke="black" points="326,-103.79 329.5,-113.79 333,-103.79 326,-103.79"/>
</g>
<!-- AdminLoginComponent -->
<g id="node3" class="node">
<title>AdminLoginComponent</title>
<polygon fill="#ffffb3" stroke="black" points="177.66,-84.8 24.34,-84.8 24.34,-48.8 177.66,-48.8 177.66,-84.8"/>
<text text-anchor="middle" x="101" y="-62.6" font-family="Times,serif" font-size="14.00">AdminLoginComponent</text>
</g>
<!-- AdminLoginComponent&#45;&gt;AdminModule -->
<g id="edge3" class="edge">
<title>AdminLoginComponent&#45;&gt;AdminModule</title>
<path fill="none" stroke="black" d="M101,-84.91C101,-104.14 101,-131.8 101,-131.8 101,-131.8 298.75,-131.8 298.75,-131.8"/>
<polygon fill="black" stroke="black" points="298.75,-135.3 308.75,-131.8 298.75,-128.3 298.75,-135.3"/>
</g>
<!-- AdminRoutingModule -->
<g id="node5" class="node">
<title>AdminRoutingModule</title>
<polygon fill="#8dd3c7" stroke="black" points="685.56,-84.8 682.56,-88.8 661.56,-88.8 658.56,-84.8 542.44,-84.8 542.44,-48.8 685.56,-48.8 685.56,-84.8"/>
<text text-anchor="middle" x="614" y="-62.6" font-family="Times,serif" font-size="14.00">AdminRoutingModule</text>
</g>
<!-- AdminRoutingModule&#45;&gt;AdminModule -->
<g id="edge4" class="edge">
<title>AdminRoutingModule&#45;&gt;AdminModule</title>
<path fill="none" stroke="black" d="M614,-84.91C614,-104.14 614,-131.8 614,-131.8 614,-131.8 417.36,-131.8 417.36,-131.8"/>
<polygon fill="black" stroke="black" points="417.36,-128.3 407.36,-131.8 417.36,-135.3 417.36,-128.3"/>
</g>
</g>
</svg>
