<?xml version="1.0" encoding="UTF-8" standalone="no"?>
<!DOCTYPE svg PUBLIC "-//W3C//DTD SVG 1.1//EN"
 "http://www.w3.org/Graphics/SVG/1.1/DTD/svg11.dtd">
<!-- Generated by graphviz version 3.0.0 (20220226.1711)
 -->
<!-- Title: dependencies Pages: 1 -->
<svg width="1479pt" height="174pt"
 viewBox="0.00 0.00 1479.00 173.80" xmlns="http://www.w3.org/2000/svg" xmlns:xlink="http://www.w3.org/1999/xlink">
<g id="graph0" class="graph" transform="scale(1 1) rotate(0) translate(4 169.8)">
<title>dependencies</title>
<polygon fill="white" stroke="transparent" points="-4,4 -4,-169.8 1475,-169.8 1475,4 -4,4"/>
<text text-anchor="middle" x="735.5" y="-8.2" font-family="sans-serif" font-size="14.00">dependencies</text>
<g id="clust1" class="cluster">
<title>cluster_ConvocatoriaModule</title>
<polygon fill="none" stroke="black" stroke-dasharray="1,5" points="8,-32.8 8,-157.8 1463,-157.8 1463,-32.8 8,-32.8"/>
</g>
<g id="clust2" class="cluster">
<title>cluster_ConvocatoriaModule_declarations</title>
<polygon fill="none" stroke="black" points="220,-40.8 220,-92.8 1455,-92.8 1455,-40.8 220,-40.8"/>
</g>
<g id="clust10" class="cluster">
<title>cluster_ConvocatoriaModule_imports</title>
<polygon fill="none" stroke="black" points="16,-40.8 16,-92.8 212,-92.8 212,-40.8 16,-40.8"/>
</g>
<!-- ApplyComponent -->
<g id="node1" class="node">
<title>ApplyComponent</title>
<polygon fill="#ffffb3" stroke="black" points="1447.33,-84.8 1330.67,-84.8 1330.67,-48.8 1447.33,-48.8 1447.33,-84.8"/>
<text text-anchor="middle" x="1389" y="-62.6" font-family="Times,serif" font-size="14.00">ApplyComponent</text>
</g>
<!-- ConvocatoriaModule -->
<g id="node8" class="node">
<title>ConvocatoriaModule</title>
<polygon fill="#8dd3c7" stroke="black" points="839.47,-149.8 836.47,-153.8 815.47,-153.8 812.47,-149.8 704.53,-149.8 704.53,-113.8 839.47,-113.8 839.47,-149.8"/>
<text text-anchor="middle" x="772" y="-127.6" font-family="Times,serif" font-size="14.00">ConvocatoriaModule</text>
</g>
<!-- ApplyComponent&#45;&gt;ConvocatoriaModule -->
<g id="edge1" class="edge">
<title>ApplyComponent&#45;&gt;ConvocatoriaModule</title>
<path fill="none" stroke="black" d="M1389,-85.09C1389,-107.01 1389,-140.8 1389,-140.8 1389,-140.8 849.5,-140.8 849.5,-140.8"/>
<polygon fill="black" stroke="black" points="849.5,-137.3 839.5,-140.8 849.5,-144.3 849.5,-137.3"/>
</g>
<!-- ContactComponent -->
<g id="node2" class="node">
<title>ContactComponent</title>
<polygon fill="#ffffb3" stroke="black" points="1312.38,-84.8 1187.62,-84.8 1187.62,-48.8 1312.38,-48.8 1312.38,-84.8"/>
<text text-anchor="middle" x="1250" y="-62.6" font-family="Times,serif" font-size="14.00">ContactComponent</text>
</g>
<!-- ContactComponent&#45;&gt;ConvocatoriaModule -->
<g id="edge2" class="edge">
<title>ContactComponent&#45;&gt;ConvocatoriaModule</title>
<path fill="none" stroke="black" d="M1250,-84.91C1250,-104.14 1250,-131.8 1250,-131.8 1250,-131.8 849.72,-131.8 849.72,-131.8"/>
<polygon fill="black" stroke="black" points="849.72,-128.3 839.72,-131.8 849.72,-135.3 849.72,-128.3"/>
</g>
<!-- ConvocatoriaBodyComponent -->
<g id="node3" class="node">
<title>ConvocatoriaBodyComponent</title>
<polygon fill="#ffffb3" stroke="black" points="1169.59,-84.8 982.41,-84.8 982.41,-48.8 1169.59,-48.8 1169.59,-84.8"/>
<text text-anchor="middle" x="1076" y="-62.6" font-family="Times,serif" font-size="14.00">ConvocatoriaBodyComponent</text>
</g>
<!-- ConvocatoriaBodyComponent&#45;&gt;ConvocatoriaModule -->
<g id="edge3" class="edge">
<title>ConvocatoriaBodyComponent&#45;&gt;ConvocatoriaModule</title>
<path fill="none" stroke="black" d="M1076,-84.83C1076,-101.2 1076,-122.8 1076,-122.8 1076,-122.8 849.85,-122.8 849.85,-122.8"/>
<polygon fill="black" stroke="black" points="849.85,-119.3 839.85,-122.8 849.85,-126.3 849.85,-119.3"/>
</g>
<!-- ProcessToApplyComponent -->
<g id="node4" class="node">
<title>ProcessToApplyComponent</title>
<polygon fill="#ffffb3" stroke="black" points="964.16,-84.8 789.84,-84.8 789.84,-48.8 964.16,-48.8 964.16,-84.8"/>
<text text-anchor="middle" x="877" y="-62.6" font-family="Times,serif" font-size="14.00">ProcessToApplyComponent</text>
</g>
<!-- ProcessToApplyComponent&#45;&gt;ConvocatoriaModule -->
<g id="edge4" class="edge">
<title>ProcessToApplyComponent&#45;&gt;ConvocatoriaModule</title>
<path fill="none" stroke="black" d="M814.58,-84.91C814.58,-84.91 814.58,-103.79 814.58,-103.79"/>
<polygon fill="black" stroke="black" points="811.08,-103.79 814.58,-113.79 818.08,-103.79 811.08,-103.79"/>
</g>
<!-- RequirementsToApplyComponent -->
<g id="node5" class="node">
<title>RequirementsToApplyComponent</title>
<polygon fill="#ffffb3" stroke="black" points="771.64,-84.8 562.36,-84.8 562.36,-48.8 771.64,-48.8 771.64,-84.8"/>
<text text-anchor="middle" x="667" y="-62.6" font-family="Times,serif" font-size="14.00">RequirementsToApplyComponent</text>
</g>
<!-- RequirementsToApplyComponent&#45;&gt;ConvocatoriaModule -->
<g id="edge5" class="edge">
<title>RequirementsToApplyComponent&#45;&gt;ConvocatoriaModule</title>
<path fill="none" stroke="black" d="M738.17,-84.91C738.17,-84.91 738.17,-103.79 738.17,-103.79"/>
<polygon fill="black" stroke="black" points="734.67,-103.79 738.17,-113.79 741.67,-103.79 734.67,-103.79"/>
</g>
<!-- TimelineComponent -->
<g id="node6" class="node">
<title>TimelineComponent</title>
<polygon fill="#ffffb3" stroke="black" points="543.87,-84.8 412.13,-84.8 412.13,-48.8 543.87,-48.8 543.87,-84.8"/>
<text text-anchor="middle" x="478" y="-62.6" font-family="Times,serif" font-size="14.00">TimelineComponent</text>
</g>
<!-- TimelineComponent&#45;&gt;ConvocatoriaModule -->
<g id="edge6" class="edge">
<title>TimelineComponent&#45;&gt;ConvocatoriaModule</title>
<path fill="none" stroke="black" d="M478,-84.83C478,-101.2 478,-122.8 478,-122.8 478,-122.8 694.18,-122.8 694.18,-122.8"/>
<polygon fill="black" stroke="black" points="694.18,-126.3 704.18,-122.8 694.18,-119.3 694.18,-126.3"/>
</g>
<!-- WhoCanApplyComponent -->
<g id="node7" class="node">
<title>WhoCanApplyComponent</title>
<polygon fill="#ffffb3" stroke="black" points="394.1,-84.8 227.9,-84.8 227.9,-48.8 394.1,-48.8 394.1,-84.8"/>
<text text-anchor="middle" x="311" y="-62.6" font-family="Times,serif" font-size="14.00">WhoCanApplyComponent</text>
</g>
<!-- WhoCanApplyComponent&#45;&gt;ConvocatoriaModule -->
<g id="edge7" class="edge">
<title>WhoCanApplyComponent&#45;&gt;ConvocatoriaModule</title>
<path fill="none" stroke="black" d="M311,-84.91C311,-104.14 311,-131.8 311,-131.8 311,-131.8 694.47,-131.8 694.47,-131.8"/>
<polygon fill="black" stroke="black" points="694.47,-135.3 704.47,-131.8 694.47,-128.3 694.47,-135.3"/>
</g>
<!-- ConvocatoriaRoutingModule -->
<g id="node9" class="node">
<title>ConvocatoriaRoutingModule</title>
<polygon fill="#8dd3c7" stroke="black" points="204.09,-84.8 201.09,-88.8 180.09,-88.8 177.09,-84.8 23.91,-84.8 23.91,-48.8 204.09,-48.8 204.09,-84.8"/>
<text text-anchor="middle" x="114" y="-62.6" font-family="Times,serif" font-size="14.00">ConvocatoriaRoutingModule</text>
</g>
<!-- ConvocatoriaRoutingModule&#45;&gt;ConvocatoriaModule -->
<g id="edge8" class="edge">
<title>ConvocatoriaRoutingModule&#45;&gt;ConvocatoriaModule</title>
<path fill="none" stroke="black" d="M114,-85.09C114,-107.01 114,-140.8 114,-140.8 114,-140.8 694.37,-140.8 694.37,-140.8"/>
<polygon fill="black" stroke="black" points="694.37,-144.3 704.37,-140.8 694.37,-137.3 694.37,-144.3"/>
</g>
</g>
</svg>
