<?xml version="1.0" encoding="UTF-8" standalone="no"?>
<!DOCTYPE svg PUBLIC "-//W3C//DTD SVG 1.1//EN"
 "http://www.w3.org/Graphics/SVG/1.1/DTD/svg11.dtd">
<!-- Generated by graphviz version 5.0.0 (20220707.1540)
 -->
<!-- Title: dependencies Pages: 1 -->
<svg width="847pt" height="174pt"
 viewBox="0.00 0.00 847.00 173.80" xmlns="http://www.w3.org/2000/svg" xmlns:xlink="http://www.w3.org/1999/xlink">
<g id="graph0" class="graph" transform="scale(1 1) rotate(0) translate(4 169.8)">
<title>dependencies</title>
<polygon fill="white" stroke="transparent" points="-4,4 -4,-169.8 843,-169.8 843,4 -4,4"/>
<text text-anchor="middle" x="419.5" y="-8.2" font-family="sans-serif" font-size="14.00">dependencies</text>
<g id="clust1" class="cluster">
<title>cluster_ConvocatoriaModule</title>
<polygon fill="none" stroke="black" stroke-dasharray="1,5" points="8,-32.8 8,-157.8 831,-157.8 831,-32.8 8,-32.8"/>
</g>
<g id="clust6" class="cluster">
<title>cluster_ConvocatoriaModule_imports</title>
<polygon fill="none" stroke="black" points="511,-40.8 511,-92.8 823,-92.8 823,-40.8 511,-40.8"/>
</g>
<g id="clust2" class="cluster">
<title>cluster_ConvocatoriaModule_declarations</title>
<polygon fill="none" stroke="black" points="16,-40.8 16,-92.8 503,-92.8 503,-40.8 16,-40.8"/>
</g>
<!-- ApplyComponent -->
<g id="node1" class="node">
<title>ApplyComponent</title>
<polygon fill="#ffffb3" stroke="black" points="495.33,-84.8 378.67,-84.8 378.67,-48.8 495.33,-48.8 495.33,-84.8"/>
<text text-anchor="middle" x="437" y="-62.6" font-family="Times,serif" font-size="14.00">ApplyComponent</text>
</g>
<!-- ConvocatoriaModule -->
<g id="node4" class="node">
<title>ConvocatoriaModule</title>
<polygon fill="#8dd3c7" stroke="black" points="504.47,-149.8 501.47,-153.8 480.47,-153.8 477.47,-149.8 369.53,-149.8 369.53,-113.8 504.47,-113.8 504.47,-149.8"/>
<text text-anchor="middle" x="437" y="-127.6" font-family="Times,serif" font-size="14.00">ConvocatoriaModule</text>
</g>
<!-- ApplyComponent&#45;&gt;ConvocatoriaModule -->
<g id="edge1" class="edge">
<title>ApplyComponent&#45;&gt;ConvocatoriaModule</title>
<path fill="none" stroke="black" d="M437,-84.91C437,-84.91 437,-103.79 437,-103.79"/>
<polygon fill="black" stroke="black" points="433.5,-103.79 437,-113.79 440.5,-103.79 433.5,-103.79"/>
</g>
<!-- ConvocatoriaBodyComponent -->
<g id="node2" class="node">
<title>ConvocatoriaBodyComponent</title>
<polygon fill="#ffffb3" stroke="black" points="360.59,-84.8 173.41,-84.8 173.41,-48.8 360.59,-48.8 360.59,-84.8"/>
<text text-anchor="middle" x="267" y="-62.6" font-family="Times,serif" font-size="14.00">ConvocatoriaBodyComponent</text>
</g>
<!-- ConvocatoriaBodyComponent&#45;&gt;ConvocatoriaModule -->
<g id="edge2" class="edge">
<title>ConvocatoriaBodyComponent&#45;&gt;ConvocatoriaModule</title>
<path fill="none" stroke="black" d="M360.6,-66.8C368.86,-66.8 374.17,-66.8 374.17,-66.8 374.17,-66.8 374.17,-103.69 374.17,-103.69"/>
<polygon fill="black" stroke="black" points="370.67,-103.69 374.17,-113.69 377.67,-103.69 370.67,-103.69"/>
</g>
<!-- TimelineComponent -->
<g id="node3" class="node">
<title>TimelineComponent</title>
<polygon fill="#ffffb3" stroke="black" points="155.87,-84.8 24.13,-84.8 24.13,-48.8 155.87,-48.8 155.87,-84.8"/>
<text text-anchor="middle" x="90" y="-62.6" font-family="Times,serif" font-size="14.00">TimelineComponent</text>
</g>
<!-- TimelineComponent&#45;&gt;ConvocatoriaModule -->
<g id="edge3" class="edge">
<title>TimelineComponent&#45;&gt;ConvocatoriaModule</title>
<path fill="none" stroke="black" d="M90,-84.91C90,-104.14 90,-131.8 90,-131.8 90,-131.8 359.27,-131.8 359.27,-131.8"/>
<polygon fill="black" stroke="black" points="359.27,-135.3 369.27,-131.8 359.27,-128.3 359.27,-135.3"/>
</g>
<!-- ConvocatoriaRoutingModule -->
<g id="node5" class="node">
<title>ConvocatoriaRoutingModule</title>
<polygon fill="#8dd3c7" stroke="black" points="815.09,-84.8 812.09,-88.8 791.09,-88.8 788.09,-84.8 634.91,-84.8 634.91,-48.8 815.09,-48.8 815.09,-84.8"/>
<text text-anchor="middle" x="725" y="-62.6" font-family="Times,serif" font-size="14.00">ConvocatoriaRoutingModule</text>
</g>
<!-- ConvocatoriaRoutingModule&#45;&gt;ConvocatoriaModule -->
<g id="edge4" class="edge">
<title>ConvocatoriaRoutingModule&#45;&gt;ConvocatoriaModule</title>
<path fill="none" stroke="black" d="M725,-84.91C725,-104.14 725,-131.8 725,-131.8 725,-131.8 514.52,-131.8 514.52,-131.8"/>
<polygon fill="black" stroke="black" points="514.52,-128.3 504.52,-131.8 514.52,-135.3 514.52,-128.3"/>
</g>
<!-- SharedModule -->
<g id="node6" class="node">
<title>SharedModule</title>
<polygon fill="#8dd3c7" stroke="black" points="617.43,-84.8 614.43,-88.8 593.43,-88.8 590.43,-84.8 518.57,-84.8 518.57,-48.8 617.43,-48.8 617.43,-84.8"/>
<text text-anchor="middle" x="568" y="-62.6" font-family="Times,serif" font-size="14.00">SharedModule</text>
</g>
<!-- SharedModule&#45;&gt;ConvocatoriaModule -->
<g id="edge5" class="edge">
<title>SharedModule&#45;&gt;ConvocatoriaModule</title>
<path fill="none" stroke="black" d="M518.45,-66.8C507.88,-66.8 499.83,-66.8 499.83,-66.8 499.83,-66.8 499.83,-103.69 499.83,-103.69"/>
<polygon fill="black" stroke="black" points="496.33,-103.69 499.83,-113.69 503.33,-103.69 496.33,-103.69"/>
</g>
</g>
</svg>
