<?xml version="1.0" encoding="UTF-8" standalone="no"?>
<!DOCTYPE svg PUBLIC "-//W3C//DTD SVG 1.1//EN"
 "http://www.w3.org/Graphics/SVG/1.1/DTD/svg11.dtd">
<!-- Generated by graphviz version 3.0.0 (20220226.1711)
 -->
<!-- Title: dependencies Pages: 1 -->
<svg width="990pt" height="247pt"
 viewBox="0.00 0.00 990.00 246.80" xmlns="http://www.w3.org/2000/svg" xmlns:xlink="http://www.w3.org/1999/xlink">
<g id="graph0" class="graph" transform="scale(1 1) rotate(0) translate(4 242.8)">
<title>dependencies</title>
<polygon fill="white" stroke="transparent" points="-4,4 -4,-242.8 986,-242.8 986,4 -4,4"/>
<text text-anchor="middle" x="491" y="-8.2" font-family="sans-serif" font-size="14.00">dependencies</text>
<g id="clust1" class="cluster">
<title>cluster_AppModule</title>
<polygon fill="none" stroke="black" stroke-dasharray="1,5" points="8,-32.8 8,-230.8 974,-230.8 974,-32.8 8,-32.8"/>
</g>
<g id="clust8" class="cluster">
<title>cluster_AppModule_imports</title>
<polygon fill="none" stroke="black" points="705,-40.8 705,-92.8 966,-92.8 966,-40.8 705,-40.8"/>
</g>
<g id="clust10" class="cluster">
<title>cluster_AppModule_bootstrap</title>
<polygon fill="none" stroke="black" points="435,-170.8 435,-222.8 567,-222.8 567,-170.8 435,-170.8"/>
</g>
<g id="clust2" class="cluster">
<title>cluster_AppModule_declarations</title>
<polygon fill="none" stroke="black" points="16,-40.8 16,-92.8 697,-92.8 697,-40.8 16,-40.8"/>
</g>
<!-- BodyComponent -->
<g id="node1" class="node">
<title>BodyComponent</title>
<polygon fill="#ffffb3" stroke="black" points="688.67,-84.8 577.33,-84.8 577.33,-48.8 688.67,-48.8 688.67,-84.8"/>
<text text-anchor="middle" x="633" y="-62.6" font-family="Times,serif" font-size="14.00">BodyComponent</text>
</g>
<!-- AppModule -->
<g id="node6" class="node">
<title>AppModule</title>
<polygon fill="#8dd3c7" stroke="black" points="542.66,-149.8 539.66,-153.8 518.66,-153.8 515.66,-149.8 459.34,-149.8 459.34,-113.8 542.66,-113.8 542.66,-149.8"/>
<text text-anchor="middle" x="501" y="-127.6" font-family="Times,serif" font-size="14.00">AppModule</text>
</g>
<!-- BodyComponent&#45;&gt;AppModule -->
<g id="edge1" class="edge">
<title>BodyComponent&#45;&gt;AppModule</title>
<path fill="none" stroke="black" d="M633,-84.83C633,-101.2 633,-122.8 633,-122.8 633,-122.8 552.77,-122.8 552.77,-122.8"/>
<polygon fill="black" stroke="black" points="552.77,-119.3 542.77,-122.8 552.77,-126.3 552.77,-119.3"/>
</g>
<!-- HomeComponent -->
<g id="node2" class="node">
<title>HomeComponent</title>
<polygon fill="#ffffb3" stroke="black" points="558.55,-84.8 443.45,-84.8 443.45,-48.8 558.55,-48.8 558.55,-84.8"/>
<text text-anchor="middle" x="501" y="-62.6" font-family="Times,serif" font-size="14.00">HomeComponent</text>
</g>
<!-- HomeComponent&#45;&gt;AppModule -->
<g id="edge2" class="edge">
<title>HomeComponent&#45;&gt;AppModule</title>
<path fill="none" stroke="black" d="M501,-84.91C501,-84.91 501,-103.79 501,-103.79"/>
<polygon fill="black" stroke="black" points="497.5,-103.79 501,-113.79 504.5,-103.79 497.5,-103.79"/>
</g>
<!-- SidenavComponent -->
<g id="node3" class="node">
<title>SidenavComponent</title>
<polygon fill="#ffffb3" stroke="black" points="425.44,-84.8 298.56,-84.8 298.56,-48.8 425.44,-48.8 425.44,-84.8"/>
<text text-anchor="middle" x="362" y="-62.6" font-family="Times,serif" font-size="14.00">SidenavComponent</text>
</g>
<!-- SidenavComponent&#45;&gt;AppModule -->
<g id="edge3" class="edge">
<title>SidenavComponent&#45;&gt;AppModule</title>
<path fill="none" stroke="black" d="M362,-84.83C362,-101.2 362,-122.8 362,-122.8 362,-122.8 449.3,-122.8 449.3,-122.8"/>
<polygon fill="black" stroke="black" points="449.3,-126.3 459.3,-122.8 449.3,-119.3 449.3,-126.3"/>
</g>
<!-- SigninComponent -->
<g id="node4" class="node">
<title>SigninComponent</title>
<polygon fill="#ffffb3" stroke="black" points="280.9,-84.8 163.1,-84.8 163.1,-48.8 280.9,-48.8 280.9,-84.8"/>
<text text-anchor="middle" x="222" y="-62.6" font-family="Times,serif" font-size="14.00">SigninComponent</text>
</g>
<!-- SigninComponent&#45;&gt;AppModule -->
<g id="edge4" class="edge">
<title>SigninComponent&#45;&gt;AppModule</title>
<path fill="none" stroke="black" d="M222,-84.91C222,-104.14 222,-131.8 222,-131.8 222,-131.8 449.23,-131.8 449.23,-131.8"/>
<polygon fill="black" stroke="black" points="449.23,-135.3 459.23,-131.8 449.23,-128.3 449.23,-135.3"/>
</g>
<!-- SignupComponent -->
<g id="node5" class="node">
<title>SignupComponent</title>
<polygon fill="#ffffb3" stroke="black" points="145.51,-84.8 24.49,-84.8 24.49,-48.8 145.51,-48.8 145.51,-84.8"/>
<text text-anchor="middle" x="85" y="-62.6" font-family="Times,serif" font-size="14.00">SignupComponent</text>
</g>
<!-- SignupComponent&#45;&gt;AppModule -->
<g id="edge5" class="edge">
<title>SignupComponent&#45;&gt;AppModule</title>
<path fill="none" stroke="black" d="M85,-85.09C85,-107.01 85,-140.8 85,-140.8 85,-140.8 449.21,-140.8 449.21,-140.8"/>
<polygon fill="black" stroke="black" points="449.21,-144.3 459.21,-140.8 449.21,-137.3 449.21,-144.3"/>
</g>
<!-- BodyComponent  -->
<g id="node9" class="node">
<title>BodyComponent </title>
<polygon fill="#80b1d3" stroke="black" points="558.67,-214.8 443.33,-214.8 443.33,-178.8 558.67,-178.8 558.67,-214.8"/>
<text text-anchor="middle" x="501" y="-192.6" font-family="Times,serif" font-size="14.00">BodyComponent </text>
</g>
<!-- AppModule&#45;&gt;BodyComponent  -->
<g id="edge8" class="edge">
<title>AppModule&#45;&gt;BodyComponent </title>
<path fill="none" stroke="black" stroke-dasharray="1,5" d="M501,-149.91C501,-149.91 501,-168.79 501,-168.79"/>
<polygon fill="black" stroke="black" points="497.5,-168.79 501,-178.79 504.5,-168.79 497.5,-168.79"/>
</g>
<!-- AppRoutingModule -->
<g id="node7" class="node">
<title>AppRoutingModule</title>
<polygon fill="#8dd3c7" stroke="black" points="958.28,-84.8 955.28,-88.8 934.28,-88.8 931.28,-84.8 829.72,-84.8 829.72,-48.8 958.28,-48.8 958.28,-84.8"/>
<text text-anchor="middle" x="894" y="-62.6" font-family="Times,serif" font-size="14.00">AppRoutingModule</text>
</g>
<!-- AppRoutingModule&#45;&gt;AppModule -->
<g id="edge6" class="edge">
<title>AppRoutingModule&#45;&gt;AppModule</title>
<path fill="none" stroke="black" d="M894,-85.09C894,-107.01 894,-140.8 894,-140.8 894,-140.8 552.69,-140.8 552.69,-140.8"/>
<polygon fill="black" stroke="black" points="552.69,-137.3 542.69,-140.8 552.69,-144.3 552.69,-137.3"/>
</g>
<!-- SharedModule -->
<g id="node8" class="node">
<title>SharedModule</title>
<polygon fill="#8dd3c7" stroke="black" points="811.43,-84.8 808.43,-88.8 787.43,-88.8 784.43,-84.8 712.57,-84.8 712.57,-48.8 811.43,-48.8 811.43,-84.8"/>
<text text-anchor="middle" x="762" y="-62.6" font-family="Times,serif" font-size="14.00">SharedModule</text>
</g>
<!-- SharedModule&#45;&gt;AppModule -->
<g id="edge7" class="edge">
<title>SharedModule&#45;&gt;AppModule</title>
<path fill="none" stroke="black" d="M762,-84.91C762,-104.14 762,-131.8 762,-131.8 762,-131.8 552.93,-131.8 552.93,-131.8"/>
<polygon fill="black" stroke="black" points="552.93,-128.3 542.93,-131.8 552.93,-135.3 552.93,-128.3"/>
</g>
</g>
</svg>
