<?xml version="1.0" encoding="UTF-8" standalone="no"?>
<!DOCTYPE svg PUBLIC "-//W3C//DTD SVG 1.1//EN"
 "http://www.w3.org/Graphics/SVG/1.1/DTD/svg11.dtd">
<!-- Generated by graphviz version 5.0.0 (20220707.1540)
 -->
<!-- Title: dependencies Pages: 1 -->
<svg width="2151pt" height="247pt"
 viewBox="0.00 0.00 2151.00 246.80" xmlns="http://www.w3.org/2000/svg" xmlns:xlink="http://www.w3.org/1999/xlink">
<g id="graph0" class="graph" transform="scale(1 1) rotate(0) translate(4 242.8)">
<title>dependencies</title>
<polygon fill="white" stroke="transparent" points="-4,4 -4,-242.8 2147,-242.8 2147,4 -4,4"/>
<text text-anchor="middle" x="1071.5" y="-8.2" font-family="sans-serif" font-size="14.00">dependencies</text>
<g id="clust1" class="cluster">
<title>cluster_AppModule</title>
<polygon fill="none" stroke="black" stroke-dasharray="1,5" points="8,-32.8 8,-230.8 2135,-230.8 2135,-32.8 8,-32.8"/>
</g>
<g id="clust14" class="cluster">
<title>cluster_AppModule_imports</title>
<polygon fill="none" stroke="black" points="1866,-40.8 1866,-92.8 2127,-92.8 2127,-40.8 1866,-40.8"/>
</g>
<g id="clust2" class="cluster">
<title>cluster_AppModule_declarations</title>
<polygon fill="none" stroke="black" points="16,-40.8 16,-92.8 1858,-92.8 1858,-40.8 16,-40.8"/>
</g>
<g id="clust16" class="cluster">
<title>cluster_AppModule_bootstrap</title>
<polygon fill="none" stroke="black" points="1002,-170.8 1002,-222.8 1134,-222.8 1134,-170.8 1002,-170.8"/>
</g>
<!-- BodyComponent -->
<g id="node1" class="node">
<title>BodyComponent</title>
<polygon fill="#ffffb3" stroke="black" points="1849.67,-84.8 1738.33,-84.8 1738.33,-48.8 1849.67,-48.8 1849.67,-84.8"/>
<text text-anchor="middle" x="1794" y="-62.6" font-family="Times,serif" font-size="14.00">BodyComponent</text>
</g>
<!-- AppModule -->
<g id="node12" class="node">
<title>AppModule</title>
<polygon fill="#8dd3c7" stroke="black" points="1109.66,-149.8 1106.66,-153.8 1085.66,-153.8 1082.66,-149.8 1026.34,-149.8 1026.34,-113.8 1109.66,-113.8 1109.66,-149.8"/>
<text text-anchor="middle" x="1068" y="-127.6" font-family="Times,serif" font-size="14.00">AppModule</text>
</g>
<!-- BodyComponent&#45;&gt;AppModule -->
<g id="edge1" class="edge">
<title>BodyComponent&#45;&gt;AppModule</title>
<path fill="none" stroke="black" d="M1794,-85.02C1794,-105.17 1794,-134.8 1794,-134.8 1794,-134.8 1119.91,-134.8 1119.91,-134.8"/>
<polygon fill="black" stroke="black" points="1119.91,-131.3 1109.91,-134.8 1119.91,-138.3 1119.91,-131.3"/>
</g>
<!-- HomeComponent -->
<g id="node2" class="node">
<title>HomeComponent</title>
<polygon fill="#ffffb3" stroke="black" points="1719.55,-84.8 1604.45,-84.8 1604.45,-48.8 1719.55,-48.8 1719.55,-84.8"/>
<text text-anchor="middle" x="1662" y="-62.6" font-family="Times,serif" font-size="14.00">HomeComponent</text>
</g>
<!-- HomeComponent&#45;&gt;AppModule -->
<g id="edge2" class="edge">
<title>HomeComponent&#45;&gt;AppModule</title>
<path fill="none" stroke="black" d="M1662,-85.02C1662,-103.63 1662,-129.8 1662,-129.8 1662,-129.8 1119.77,-129.8 1119.77,-129.8"/>
<polygon fill="black" stroke="black" points="1119.77,-126.3 1109.77,-129.8 1119.77,-133.3 1119.77,-126.3"/>
</g>
<!-- OfHomeCarouselNewsComponent -->
<g id="node3" class="node">
<title>OfHomeCarouselNewsComponent</title>
<polygon fill="#ffffb3" stroke="black" points="1585.97,-84.8 1374.03,-84.8 1374.03,-48.8 1585.97,-48.8 1585.97,-84.8"/>
<text text-anchor="middle" x="1480" y="-62.6" font-family="Times,serif" font-size="14.00">OfHomeCarouselNewsComponent</text>
</g>
<!-- OfHomeCarouselNewsComponent&#45;&gt;AppModule -->
<g id="edge3" class="edge">
<title>OfHomeCarouselNewsComponent&#45;&gt;AppModule</title>
<path fill="none" stroke="black" d="M1480,-84.83C1480,-101.86 1480,-124.8 1480,-124.8 1480,-124.8 1119.77,-124.8 1119.77,-124.8"/>
<polygon fill="black" stroke="black" points="1119.77,-121.3 1109.77,-124.8 1119.77,-128.3 1119.77,-121.3"/>
</g>
<!-- OfHomeTableComponent -->
<g id="node4" class="node">
<title>OfHomeTableComponent</title>
<polygon fill="#ffffb3" stroke="black" points="1356.19,-84.8 1193.81,-84.8 1193.81,-48.8 1356.19,-48.8 1356.19,-84.8"/>
<text text-anchor="middle" x="1275" y="-62.6" font-family="Times,serif" font-size="14.00">OfHomeTableComponent</text>
</g>
<!-- OfHomeTableComponent&#45;&gt;AppModule -->
<g id="edge4" class="edge">
<title>OfHomeTableComponent&#45;&gt;AppModule</title>
<path fill="none" stroke="black" d="M1275,-85.04C1275,-100.37 1275,-119.8 1275,-119.8 1275,-119.8 1119.89,-119.8 1119.89,-119.8"/>
<polygon fill="black" stroke="black" points="1119.89,-116.3 1109.89,-119.8 1119.89,-123.3 1119.89,-116.3"/>
</g>
<!-- OfHomeTableProgramsComponent -->
<g id="node5" class="node">
<title>OfHomeTableProgramsComponent</title>
<polygon fill="#ffffb3" stroke="black" points="1175.85,-84.8 960.15,-84.8 960.15,-48.8 1175.85,-48.8 1175.85,-84.8"/>
<text text-anchor="middle" x="1068" y="-62.6" font-family="Times,serif" font-size="14.00">OfHomeTableProgramsComponent</text>
</g>
<!-- OfHomeTableProgramsComponent&#45;&gt;AppModule -->
<g id="edge5" class="edge">
<title>OfHomeTableProgramsComponent&#45;&gt;AppModule</title>
<path fill="none" stroke="black" d="M1068,-84.91C1068,-84.91 1068,-103.79 1068,-103.79"/>
<polygon fill="black" stroke="black" points="1064.5,-103.79 1068,-113.79 1071.5,-103.79 1064.5,-103.79"/>
</g>
<!-- RequestAccessComponent -->
<g id="node6" class="node">
<title>RequestAccessComponent</title>
<polygon fill="#ffffb3" stroke="black" points="942.08,-84.8 775.92,-84.8 775.92,-48.8 942.08,-48.8 942.08,-84.8"/>
<text text-anchor="middle" x="859" y="-62.6" font-family="Times,serif" font-size="14.00">RequestAccessComponent</text>
</g>
<!-- RequestAccessComponent&#45;&gt;AppModule -->
<g id="edge6" class="edge">
<title>RequestAccessComponent&#45;&gt;AppModule</title>
<path fill="none" stroke="black" d="M859,-85.04C859,-100.37 859,-119.8 859,-119.8 859,-119.8 1016.21,-119.8 1016.21,-119.8"/>
<polygon fill="black" stroke="black" points="1016.21,-123.3 1026.21,-119.8 1016.21,-116.3 1016.21,-123.3"/>
</g>
<!-- SidenavComponent -->
<g id="node7" class="node">
<title>SidenavComponent</title>
<polygon fill="#ffffb3" stroke="black" points="758.44,-84.8 631.56,-84.8 631.56,-48.8 758.44,-48.8 758.44,-84.8"/>
<text text-anchor="middle" x="695" y="-62.6" font-family="Times,serif" font-size="14.00">SidenavComponent</text>
</g>
<!-- SidenavComponent&#45;&gt;AppModule -->
<g id="edge7" class="edge">
<title>SidenavComponent&#45;&gt;AppModule</title>
<path fill="none" stroke="black" d="M695,-84.83C695,-101.86 695,-124.8 695,-124.8 695,-124.8 1016.3,-124.8 1016.3,-124.8"/>
<polygon fill="black" stroke="black" points="1016.3,-128.3 1026.3,-124.8 1016.3,-121.3 1016.3,-128.3"/>
</g>
<!-- SigninComponent -->
<g id="node8" class="node">
<title>SigninComponent</title>
<polygon fill="#ffffb3" stroke="black" points="613.9,-84.8 496.1,-84.8 496.1,-48.8 613.9,-48.8 613.9,-84.8"/>
<text text-anchor="middle" x="555" y="-62.6" font-family="Times,serif" font-size="14.00">SigninComponent</text>
</g>
<!-- SigninComponent&#45;&gt;AppModule -->
<g id="edge8" class="edge">
<title>SigninComponent&#45;&gt;AppModule</title>
<path fill="none" stroke="black" d="M555,-85.02C555,-103.63 555,-129.8 555,-129.8 555,-129.8 1016.02,-129.8 1016.02,-129.8"/>
<polygon fill="black" stroke="black" points="1016.02,-133.3 1026.02,-129.8 1016.02,-126.3 1016.02,-133.3"/>
</g>
<!-- SignupComponent -->
<g id="node9" class="node">
<title>SignupComponent</title>
<polygon fill="#ffffb3" stroke="black" points="478.51,-84.8 357.49,-84.8 357.49,-48.8 478.51,-48.8 478.51,-84.8"/>
<text text-anchor="middle" x="418" y="-62.6" font-family="Times,serif" font-size="14.00">SignupComponent</text>
</g>
<!-- SignupComponent&#45;&gt;AppModule -->
<g id="edge9" class="edge">
<title>SignupComponent&#45;&gt;AppModule</title>
<path fill="none" stroke="black" d="M418,-85.02C418,-105.17 418,-134.8 418,-134.8 418,-134.8 1015.85,-134.8 1015.85,-134.8"/>
<polygon fill="black" stroke="black" points="1015.85,-138.3 1025.85,-134.8 1015.85,-131.3 1015.85,-138.3"/>
</g>
<!-- UserProfileComponent -->
<g id="node10" class="node">
<title>UserProfileComponent</title>
<polygon fill="#ffffb3" stroke="black" points="339.87,-84.8 194.13,-84.8 194.13,-48.8 339.87,-48.8 339.87,-84.8"/>
<text text-anchor="middle" x="267" y="-62.6" font-family="Times,serif" font-size="14.00">UserProfileComponent</text>
</g>
<!-- UserProfileComponent&#45;&gt;AppModule -->
<g id="edge10" class="edge">
<title>UserProfileComponent&#45;&gt;AppModule</title>
<path fill="none" stroke="black" d="M267,-84.84C267,-106.46 267,-139.8 267,-139.8 267,-139.8 1016.06,-139.8 1016.06,-139.8"/>
<polygon fill="black" stroke="black" points="1016.06,-143.3 1026.06,-139.8 1016.06,-136.3 1016.06,-143.3"/>
</g>
<!-- uploadPhotoComponent -->
<g id="node11" class="node">
<title>uploadPhotoComponent</title>
<polygon fill="#ffffb3" stroke="black" points="176.11,-84.8 23.89,-84.8 23.89,-48.8 176.11,-48.8 176.11,-84.8"/>
<text text-anchor="middle" x="100" y="-62.6" font-family="Times,serif" font-size="14.00">uploadPhotoComponent</text>
</g>
<!-- uploadPhotoComponent&#45;&gt;AppModule -->
<g id="edge11" class="edge">
<title>uploadPhotoComponent&#45;&gt;AppModule</title>
<path fill="none" stroke="black" d="M100,-84.89C100,-107.93 100,-144.8 100,-144.8 100,-144.8 1016.1,-144.8 1016.1,-144.8"/>
<polygon fill="black" stroke="black" points="1016.1,-148.3 1026.1,-144.8 1016.1,-141.3 1016.1,-148.3"/>
</g>
<!-- BodyComponent  -->
<g id="node15" class="node">
<title>BodyComponent </title>
<polygon fill="#80b1d3" stroke="black" points="1125.67,-214.8 1010.33,-214.8 1010.33,-178.8 1125.67,-178.8 1125.67,-214.8"/>
<text text-anchor="middle" x="1068" y="-192.6" font-family="Times,serif" font-size="14.00">BodyComponent </text>
</g>
<!-- AppModule&#45;&gt;BodyComponent  -->
<g id="edge14" class="edge">
<title>AppModule&#45;&gt;BodyComponent </title>
<path fill="none" stroke="black" stroke-dasharray="1,5" d="M1068,-149.91C1068,-149.91 1068,-168.79 1068,-168.79"/>
<polygon fill="black" stroke="black" points="1064.5,-168.79 1068,-178.79 1071.5,-168.79 1064.5,-168.79"/>
</g>
<!-- AppRoutingModule -->
<g id="node13" class="node">
<title>AppRoutingModule</title>
<polygon fill="#8dd3c7" stroke="black" points="2119.28,-84.8 2116.28,-88.8 2095.28,-88.8 2092.28,-84.8 1990.72,-84.8 1990.72,-48.8 2119.28,-48.8 2119.28,-84.8"/>
<text text-anchor="middle" x="2055" y="-62.6" font-family="Times,serif" font-size="14.00">AppRoutingModule</text>
</g>
<!-- AppRoutingModule&#45;&gt;AppModule -->
<g id="edge12" class="edge">
<title>AppRoutingModule&#45;&gt;AppModule</title>
<path fill="none" stroke="black" d="M2055,-84.89C2055,-107.93 2055,-144.8 2055,-144.8 2055,-144.8 1119.78,-144.8 1119.78,-144.8"/>
<polygon fill="black" stroke="black" points="1119.78,-141.3 1109.78,-144.8 1119.78,-148.3 1119.78,-141.3"/>
</g>
<!-- SharedModule -->
<g id="node14" class="node">
<title>SharedModule</title>
<polygon fill="#8dd3c7" stroke="black" points="1972.43,-84.8 1969.43,-88.8 1948.43,-88.8 1945.43,-84.8 1873.57,-84.8 1873.57,-48.8 1972.43,-48.8 1972.43,-84.8"/>
<text text-anchor="middle" x="1923" y="-62.6" font-family="Times,serif" font-size="14.00">SharedModule</text>
</g>
<!-- SharedModule&#45;&gt;AppModule -->
<g id="edge13" class="edge">
<title>SharedModule&#45;&gt;AppModule</title>
<path fill="none" stroke="black" d="M1923,-84.84C1923,-106.46 1923,-139.8 1923,-139.8 1923,-139.8 1119.82,-139.8 1119.82,-139.8"/>
<polygon fill="black" stroke="black" points="1119.82,-136.3 1109.82,-139.8 1119.82,-143.3 1119.82,-136.3"/>
</g>
</g>
</svg>
