<?xml version="1.0" encoding="UTF-8" standalone="no"?>
<!DOCTYPE svg PUBLIC "-//W3C//DTD SVG 1.1//EN"
 "http://www.w3.org/Graphics/SVG/1.1/DTD/svg11.dtd">
<!-- Generated by graphviz version 3.0.0 (20220226.1711)
 -->
<!-- Title: dependencies Pages: 1 -->
<svg width="1208pt" height="174pt"
 viewBox="0.00 0.00 1208.00 173.80" xmlns="http://www.w3.org/2000/svg" xmlns:xlink="http://www.w3.org/1999/xlink">
<g id="graph0" class="graph" transform="scale(1 1) rotate(0) translate(4 169.8)">
<title>dependencies</title>
<polygon fill="white" stroke="transparent" points="-4,4 -4,-169.8 1204,-169.8 1204,4 -4,4"/>
<text text-anchor="middle" x="600" y="-8.2" font-family="sans-serif" font-size="14.00">dependencies</text>
<g id="clust1" class="cluster">
<title>cluster_UserDataRegisterModule</title>
<polygon fill="none" stroke="black" stroke-dasharray="1,5" points="8,-32.8 8,-157.8 1192,-157.8 1192,-32.8 8,-32.8"/>
</g>
<g id="clust8" class="cluster">
<title>cluster_UserDataRegisterModule_imports</title>
<polygon fill="none" stroke="black" points="848,-40.8 848,-92.8 1184,-92.8 1184,-40.8 848,-40.8"/>
</g>
<g id="clust2" class="cluster">
<title>cluster_UserDataRegisterModule_declarations</title>
<polygon fill="none" stroke="black" points="16,-40.8 16,-92.8 840,-92.8 840,-40.8 16,-40.8"/>
</g>
<!-- AcademicInfoComponent -->
<g id="node1" class="node">
<title>AcademicInfoComponent</title>
<polygon fill="#ffffb3" stroke="black" points="831.9,-84.8 670.1,-84.8 670.1,-48.8 831.9,-48.8 831.9,-84.8"/>
<text text-anchor="middle" x="751" y="-62.6" font-family="Times,serif" font-size="14.00">AcademicInfoComponent</text>
</g>
<!-- UserDataRegisterModule -->
<g id="node6" class="node">
<title>UserDataRegisterModule</title>
<polygon fill="#8dd3c7" stroke="black" points="657.57,-149.8 654.57,-153.8 633.57,-153.8 630.57,-149.8 498.43,-149.8 498.43,-113.8 657.57,-113.8 657.57,-149.8"/>
<text text-anchor="middle" x="578" y="-127.6" font-family="Times,serif" font-size="14.00">UserDataRegisterModule</text>
</g>
<!-- AcademicInfoComponent&#45;&gt;UserDataRegisterModule -->
<g id="edge1" class="edge">
<title>AcademicInfoComponent&#45;&gt;UserDataRegisterModule</title>
<path fill="none" stroke="black" d="M751,-84.83C751,-101.2 751,-122.8 751,-122.8 751,-122.8 667.66,-122.8 667.66,-122.8"/>
<polygon fill="black" stroke="black" points="667.66,-119.3 657.66,-122.8 667.66,-126.3 667.66,-119.3"/>
</g>
<!-- GeneralInfoComponent -->
<g id="node2" class="node">
<title>GeneralInfoComponent</title>
<polygon fill="#ffffb3" stroke="black" points="652.46,-84.8 503.54,-84.8 503.54,-48.8 652.46,-48.8 652.46,-84.8"/>
<text text-anchor="middle" x="578" y="-62.6" font-family="Times,serif" font-size="14.00">GeneralInfoComponent</text>
</g>
<!-- GeneralInfoComponent&#45;&gt;UserDataRegisterModule -->
<g id="edge2" class="edge">
<title>GeneralInfoComponent&#45;&gt;UserDataRegisterModule</title>
<path fill="none" stroke="black" d="M578,-84.91C578,-84.91 578,-103.79 578,-103.79"/>
<polygon fill="black" stroke="black" points="574.5,-103.79 578,-113.79 581.5,-103.79 574.5,-103.79"/>
</g>
<!-- UnsaStudentComponent -->
<g id="node3" class="node">
<title>UnsaStudentComponent</title>
<polygon fill="#ffffb3" stroke="black" points="485.38,-84.8 332.62,-84.8 332.62,-48.8 485.38,-48.8 485.38,-84.8"/>
<text text-anchor="middle" x="409" y="-62.6" font-family="Times,serif" font-size="14.00">UnsaStudentComponent</text>
</g>
<!-- UnsaStudentComponent&#45;&gt;UserDataRegisterModule -->
<g id="edge3" class="edge">
<title>UnsaStudentComponent&#45;&gt;UserDataRegisterModule</title>
<path fill="none" stroke="black" d="M409,-84.83C409,-101.2 409,-122.8 409,-122.8 409,-122.8 488.45,-122.8 488.45,-122.8"/>
<polygon fill="black" stroke="black" points="488.45,-126.3 498.45,-122.8 488.45,-119.3 488.45,-126.3"/>
</g>
<!-- UserBodyComponent -->
<g id="node4" class="node">
<title>UserBodyComponent</title>
<polygon fill="#ffffb3" stroke="black" points="315.1,-84.8 176.9,-84.8 176.9,-48.8 315.1,-48.8 315.1,-84.8"/>
<text text-anchor="middle" x="246" y="-62.6" font-family="Times,serif" font-size="14.00">UserBodyComponent</text>
</g>
<!-- UserBodyComponent&#45;&gt;UserDataRegisterModule -->
<g id="edge4" class="edge">
<title>UserBodyComponent&#45;&gt;UserDataRegisterModule</title>
<path fill="none" stroke="black" d="M246,-84.91C246,-104.14 246,-131.8 246,-131.8 246,-131.8 488.06,-131.8 488.06,-131.8"/>
<polygon fill="black" stroke="black" points="488.06,-135.3 498.06,-131.8 488.06,-128.3 488.06,-135.3"/>
</g>
<!-- WelcomeComponent -->
<g id="node5" class="node">
<title>WelcomeComponent</title>
<polygon fill="#ffffb3" stroke="black" points="158.47,-84.8 23.53,-84.8 23.53,-48.8 158.47,-48.8 158.47,-84.8"/>
<text text-anchor="middle" x="91" y="-62.6" font-family="Times,serif" font-size="14.00">WelcomeComponent</text>
</g>
<!-- WelcomeComponent&#45;&gt;UserDataRegisterModule -->
<g id="edge5" class="edge">
<title>WelcomeComponent&#45;&gt;UserDataRegisterModule</title>
<path fill="none" stroke="black" d="M91,-85.09C91,-107.01 91,-140.8 91,-140.8 91,-140.8 488.4,-140.8 488.4,-140.8"/>
<polygon fill="black" stroke="black" points="488.4,-144.3 498.4,-140.8 488.4,-137.3 488.4,-144.3"/>
</g>
<!-- SharedModule -->
<g id="node7" class="node">
<title>SharedModule</title>
<polygon fill="#8dd3c7" stroke="black" points="1176.43,-84.8 1173.43,-88.8 1152.43,-88.8 1149.43,-84.8 1077.57,-84.8 1077.57,-48.8 1176.43,-48.8 1176.43,-84.8"/>
<text text-anchor="middle" x="1127" y="-62.6" font-family="Times,serif" font-size="14.00">SharedModule</text>
</g>
<!-- SharedModule&#45;&gt;UserDataRegisterModule -->
<g id="edge6" class="edge">
<title>SharedModule&#45;&gt;UserDataRegisterModule</title>
<path fill="none" stroke="black" d="M1127,-85.09C1127,-107.01 1127,-140.8 1127,-140.8 1127,-140.8 667.54,-140.8 667.54,-140.8"/>
<polygon fill="black" stroke="black" points="667.54,-137.3 657.54,-140.8 667.54,-144.3 667.54,-137.3"/>
</g>
<!-- UserDataRegisterRoutingModule -->
<g id="node8" class="node">
<title>UserDataRegisterRoutingModule</title>
<polygon fill="#8dd3c7" stroke="black" points="1060.19,-84.8 1057.19,-88.8 1036.19,-88.8 1033.19,-84.8 855.81,-84.8 855.81,-48.8 1060.19,-48.8 1060.19,-84.8"/>
<text text-anchor="middle" x="958" y="-62.6" font-family="Times,serif" font-size="14.00">UserDataRegisterRoutingModule</text>
</g>
<!-- UserDataRegisterRoutingModule&#45;&gt;UserDataRegisterModule -->
<g id="edge7" class="edge">
<title>UserDataRegisterRoutingModule&#45;&gt;UserDataRegisterModule</title>
<path fill="none" stroke="black" d="M958,-84.91C958,-104.14 958,-131.8 958,-131.8 958,-131.8 667.66,-131.8 667.66,-131.8"/>
<polygon fill="black" stroke="black" points="667.66,-128.3 657.66,-131.8 667.66,-135.3 667.66,-128.3"/>
</g>
</g>
</svg>
