<?xml version="1.0" encoding="UTF-8" standalone="no"?>
<!DOCTYPE svg PUBLIC "-//W3C//DTD SVG 1.1//EN"
 "http://www.w3.org/Graphics/SVG/1.1/DTD/svg11.dtd">
<!-- Generated by graphviz version 3.0.0 (20220226.1711)
 -->
<!-- Title: dependencies Pages: 1 -->
<svg width="6361pt" height="253pt"
 viewBox="0.00 0.00 6361.00 252.80" xmlns="http://www.w3.org/2000/svg" xmlns:xlink="http://www.w3.org/1999/xlink">
<g id="graph0" class="graph" transform="scale(1 1) rotate(0) translate(4 248.8)">
<title>dependencies</title>
<polygon fill="white" stroke="transparent" points="-4,4 -4,-248.8 6357,-248.8 6357,4 -4,4"/>
<text text-anchor="middle" x="3176.5" y="-8.2" font-family="sans-serif" font-size="14.00">dependencies</text>
<g id="clust1" class="cluster">
<title>cluster_AppModule</title>
<polygon fill="none" stroke="black" stroke-dasharray="1,5" points="8,-32.8 8,-236.8 973,-236.8 973,-32.8 8,-32.8"/>
</g>
<g id="clust2" class="cluster">
<title>cluster_AppModule_declarations</title>
<polygon fill="none" stroke="black" points="16,-40.8 16,-92.8 696,-92.8 696,-40.8 16,-40.8"/>
</g>
<g id="clust8" class="cluster">
<title>cluster_AppModule_imports</title>
<polygon fill="none" stroke="black" points="704,-40.8 704,-92.8 965,-92.8 965,-40.8 704,-40.8"/>
</g>
<g id="clust10" class="cluster">
<title>cluster_AppModule_bootstrap</title>
<polygon fill="none" stroke="black" points="426,-176.8 426,-228.8 558,-228.8 558,-176.8 426,-176.8"/>
</g>
<g id="clust18" class="cluster">
<title>cluster_ConvocatoriaModule</title>
<polygon fill="none" stroke="black" stroke-dasharray="1,5" points="4890,-32.8 4890,-160.8 6345,-160.8 6345,-32.8 4890,-32.8"/>
</g>
<g id="clust19" class="cluster">
<title>cluster_ConvocatoriaModule_declarations</title>
<polygon fill="none" stroke="black" points="5102,-40.8 5102,-92.8 6337,-92.8 6337,-40.8 5102,-40.8"/>
</g>
<g id="clust27" class="cluster">
<title>cluster_ConvocatoriaModule_imports</title>
<polygon fill="none" stroke="black" points="4898,-40.8 4898,-92.8 5094,-92.8 5094,-40.8 4898,-40.8"/>
</g>
<g id="clust43" class="cluster">
<title>cluster_SharedModule</title>
<polygon fill="none" stroke="black" stroke-dasharray="1,5" points="981,-100.8 981,-168.8 2824,-168.8 2824,-100.8 981,-100.8"/>
</g>
<g id="clust44" class="cluster">
<title>cluster_SharedModule_declarations</title>
<polygon fill="none" stroke="black" points="1915,-108.8 1915,-160.8 2816,-160.8 2816,-108.8 1915,-108.8"/>
</g>
<g id="clust51" class="cluster">
<title>cluster_SharedModule_exports</title>
<polygon fill="none" stroke="black" points="989,-108.8 989,-160.8 1907,-160.8 1907,-108.8 989,-108.8"/>
</g>
<g id="clust54" class="cluster">
<title>cluster_UserDataPostulationModule</title>
<polygon fill="none" stroke="black" stroke-dasharray="1,5" points="2832,-32.8 2832,-160.8 3806,-160.8 3806,-32.8 2832,-32.8"/>
</g>
<g id="clust55" class="cluster">
<title>cluster_UserDataPostulationModule_declarations</title>
<polygon fill="none" stroke="black" points="3084,-40.8 3084,-92.8 3798,-92.8 3798,-40.8 3084,-40.8"/>
</g>
<g id="clust60" class="cluster">
<title>cluster_UserDataPostulationModule_imports</title>
<polygon fill="none" stroke="black" points="2840,-40.8 2840,-92.8 3076,-92.8 3076,-40.8 2840,-40.8"/>
</g>
<g id="clust70" class="cluster">
<title>cluster_UserDataRegisterModule</title>
<polygon fill="none" stroke="black" stroke-dasharray="1,5" points="3814,-32.8 3814,-160.8 4882,-160.8 4882,-32.8 3814,-32.8"/>
</g>
<g id="clust71" class="cluster">
<title>cluster_UserDataRegisterModule_declarations</title>
<polygon fill="none" stroke="black" points="4050,-40.8 4050,-92.8 4874,-92.8 4874,-40.8 4050,-40.8"/>
</g>
<g id="clust77" class="cluster">
<title>cluster_UserDataRegisterModule_imports</title>
<polygon fill="none" stroke="black" points="3822,-40.8 3822,-92.8 4042,-92.8 4042,-40.8 3822,-40.8"/>
</g>
<!-- BodyComponent -->
<g id="node1" class="node">
<title>BodyComponent</title>
<polygon fill="#ffffb3" stroke="black" points="413.67,-84.8 302.33,-84.8 302.33,-48.8 413.67,-48.8 413.67,-84.8"/>
<text text-anchor="middle" x="358" y="-62.6" font-family="Times,serif" font-size="14.00">BodyComponent</text>
</g>
<!-- AppModule -->
<g id="node6" class="node">
<title>AppModule</title>
<polygon fill="#8dd3c7" stroke="black" points="533.66,-152.8 530.66,-156.8 509.66,-156.8 506.66,-152.8 450.34,-152.8 450.34,-116.8 533.66,-116.8 533.66,-152.8"/>
<text text-anchor="middle" x="492" y="-130.6" font-family="Times,serif" font-size="14.00">AppModule</text>
</g>
<!-- BodyComponent&#45;&gt;AppModule -->
<g id="edge1" class="edge">
<title>BodyComponent&#45;&gt;AppModule</title>
<path fill="none" stroke="black" d="M358,-84.82C358,-102.17 358,-125.8 358,-125.8 358,-125.8 440.34,-125.8 440.34,-125.8"/>
<polygon fill="black" stroke="black" points="440.34,-129.3 450.34,-125.8 440.34,-122.3 440.34,-129.3"/>
</g>
<!-- HomeComponent -->
<g id="node2" class="node">
<title>HomeComponent</title>
<polygon fill="#ffffb3" stroke="black" points="283.55,-84.8 168.45,-84.8 168.45,-48.8 283.55,-48.8 283.55,-84.8"/>
<text text-anchor="middle" x="226" y="-62.6" font-family="Times,serif" font-size="14.00">HomeComponent</text>
</g>
<!-- HomeComponent&#45;&gt;AppModule -->
<g id="edge2" class="edge">
<title>HomeComponent&#45;&gt;AppModule</title>
<path fill="none" stroke="black" d="M226,-85.02C226,-105.17 226,-134.8 226,-134.8 226,-134.8 440.14,-134.8 440.14,-134.8"/>
<polygon fill="black" stroke="black" points="440.14,-138.3 450.14,-134.8 440.14,-131.3 440.14,-138.3"/>
</g>
<!-- SidenavComponent -->
<g id="node3" class="node">
<title>SidenavComponent</title>
<polygon fill="#ffffb3" stroke="black" points="150.44,-84.8 23.56,-84.8 23.56,-48.8 150.44,-48.8 150.44,-84.8"/>
<text text-anchor="middle" x="87" y="-62.6" font-family="Times,serif" font-size="14.00">SidenavComponent</text>
</g>
<!-- SidenavComponent&#45;&gt;AppModule -->
<g id="edge3" class="edge">
<title>SidenavComponent&#45;&gt;AppModule</title>
<path fill="none" stroke="black" d="M87,-85.05C87,-107.82 87,-143.8 87,-143.8 87,-143.8 440.18,-143.8 440.18,-143.8"/>
<polygon fill="black" stroke="black" points="440.18,-147.3 450.18,-143.8 440.18,-140.3 440.18,-147.3"/>
</g>
<!-- SigninComponent -->
<g id="node4" class="node">
<title>SigninComponent</title>
<polygon fill="#ffffb3" stroke="black" points="687.9,-84.8 570.1,-84.8 570.1,-48.8 687.9,-48.8 687.9,-84.8"/>
<text text-anchor="middle" x="629" y="-62.6" font-family="Times,serif" font-size="14.00">SigninComponent</text>
</g>
<!-- SigninComponent&#45;&gt;AppModule -->
<g id="edge4" class="edge">
<title>SigninComponent&#45;&gt;AppModule</title>
<path fill="none" stroke="black" d="M629,-84.91C629,-104.14 629,-131.8 629,-131.8 629,-131.8 543.85,-131.8 543.85,-131.8"/>
<polygon fill="black" stroke="black" points="543.85,-128.3 533.85,-131.8 543.85,-135.3 543.85,-128.3"/>
</g>
<!-- SignupComponent -->
<g id="node5" class="node">
<title>SignupComponent</title>
<polygon fill="#ffffb3" stroke="black" points="552.51,-84.8 431.49,-84.8 431.49,-48.8 552.51,-48.8 552.51,-84.8"/>
<text text-anchor="middle" x="492" y="-62.6" font-family="Times,serif" font-size="14.00">SignupComponent</text>
</g>
<!-- SignupComponent&#45;&gt;AppModule -->
<g id="edge5" class="edge">
<title>SignupComponent&#45;&gt;AppModule</title>
<path fill="none" stroke="black" d="M492,-85.02C492,-85.02 492,-106.53 492,-106.53"/>
<polygon fill="black" stroke="black" points="488.5,-106.53 492,-116.53 495.5,-106.53 488.5,-106.53"/>
</g>
<!-- BodyComponent  -->
<g id="node9" class="node">
<title>BodyComponent </title>
<polygon fill="#80b1d3" stroke="black" points="549.67,-220.8 434.33,-220.8 434.33,-184.8 549.67,-184.8 549.67,-220.8"/>
<text text-anchor="middle" x="492" y="-198.6" font-family="Times,serif" font-size="14.00">BodyComponent </text>
</g>
<!-- AppModule&#45;&gt;BodyComponent  -->
<g id="edge8" class="edge">
<title>AppModule&#45;&gt;BodyComponent </title>
<path fill="none" stroke="black" stroke-dasharray="1,5" d="M492,-153.02C492,-153.02 492,-174.53 492,-174.53"/>
<polygon fill="black" stroke="black" points="488.5,-174.53 492,-184.53 495.5,-174.53 488.5,-174.53"/>
</g>
<!-- AppRoutingModule -->
<g id="node7" class="node">
<title>AppRoutingModule</title>
<polygon fill="#8dd3c7" stroke="black" points="840.28,-84.8 837.28,-88.8 816.28,-88.8 813.28,-84.8 711.72,-84.8 711.72,-48.8 840.28,-48.8 840.28,-84.8"/>
<text text-anchor="middle" x="776" y="-62.6" font-family="Times,serif" font-size="14.00">AppRoutingModule</text>
</g>
<!-- AppRoutingModule&#45;&gt;AppModule -->
<g id="edge6" class="edge">
<title>AppRoutingModule&#45;&gt;AppModule</title>
<path fill="none" stroke="black" d="M776,-84.97C776,-106.3 776,-138.8 776,-138.8 776,-138.8 543.91,-138.8 543.91,-138.8"/>
<polygon fill="black" stroke="black" points="543.91,-135.3 533.91,-138.8 543.91,-142.3 543.91,-135.3"/>
</g>
<!-- SharedModule -->
<g id="node8" class="node">
<title>SharedModule</title>
<polygon fill="#8dd3c7" stroke="black" points="957.43,-84.8 954.43,-88.8 933.43,-88.8 930.43,-84.8 858.57,-84.8 858.57,-48.8 957.43,-48.8 957.43,-84.8"/>
<text text-anchor="middle" x="908" y="-62.6" font-family="Times,serif" font-size="14.00">SharedModule</text>
</g>
<!-- SharedModule&#45;&gt;AppModule -->
<g id="edge7" class="edge">
<title>SharedModule&#45;&gt;AppModule</title>
<path fill="none" stroke="black" d="M908,-85.12C908,-108.46 908,-145.8 908,-145.8 908,-145.8 543.79,-145.8 543.79,-145.8"/>
<polygon fill="black" stroke="black" points="543.79,-142.3 533.79,-145.8 543.79,-149.3 543.79,-142.3"/>
</g>
<!-- SidenavItemComponent  -->
<g id="node24" class="node">
<title>SidenavItemComponent </title>
<polygon fill="#fb8072" stroke="black" points="1350.59,-152.8 1195.41,-152.8 1195.41,-116.8 1350.59,-116.8 1350.59,-152.8"/>
<text text-anchor="middle" x="1273" y="-130.6" font-family="Times,serif" font-size="14.00">SidenavItemComponent </text>
</g>
<!-- SharedModule&#45;&gt;SidenavItemComponent  -->
<g id="edge22" class="edge">
<title>SharedModule&#45;&gt;SidenavItemComponent </title>
<path fill="none" stroke="black" stroke-dasharray="5,2" d="M957.23,-81.8C1056.85,-81.8 1273,-81.8 1273,-81.8 1273,-81.8 1273,-106.56 1273,-106.56"/>
<polygon fill="black" stroke="black" points="1269.5,-106.56 1273,-116.56 1276.5,-106.56 1269.5,-106.56"/>
</g>
<!-- SidenavUserInfoComponent  -->
<g id="node25" class="node">
<title>SidenavUserInfoComponent </title>
<polygon fill="#fb8072" stroke="black" points="1176.69,-152.8 997.31,-152.8 997.31,-116.8 1176.69,-116.8 1176.69,-152.8"/>
<text text-anchor="middle" x="1087" y="-130.6" font-family="Times,serif" font-size="14.00">SidenavUserInfoComponent </text>
</g>
<!-- SharedModule&#45;&gt;SidenavUserInfoComponent  -->
<g id="edge23" class="edge">
<title>SharedModule&#45;&gt;SidenavUserInfoComponent </title>
<path fill="none" stroke="black" stroke-dasharray="5,2" d="M932.61,-84.83C932.61,-101.86 932.61,-124.8 932.61,-124.8 932.61,-124.8 987.19,-124.8 987.19,-124.8"/>
<polygon fill="black" stroke="black" points="987.19,-128.3 997.19,-124.8 987.19,-121.3 987.19,-128.3"/>
</g>
<!-- SteperComponent  -->
<g id="node26" class="node">
<title>SteperComponent </title>
<polygon fill="#fb8072" stroke="black" points="1899.1,-152.8 1778.9,-152.8 1778.9,-116.8 1899.1,-116.8 1899.1,-152.8"/>
<text text-anchor="middle" x="1839" y="-130.6" font-family="Times,serif" font-size="14.00">SteperComponent </text>
</g>
<!-- SharedModule&#45;&gt;SteperComponent  -->
<g id="edge24" class="edge">
<title>SharedModule&#45;&gt;SteperComponent </title>
<path fill="none" stroke="black" stroke-dasharray="5,2" d="M957.4,-71.8C1149.87,-71.8 1839,-71.8 1839,-71.8 1839,-71.8 1839,-106.58 1839,-106.58"/>
<polygon fill="black" stroke="black" points="1835.5,-106.58 1839,-116.58 1842.5,-106.58 1835.5,-106.58"/>
</g>
<!-- TooltipRedSmallComponent  -->
<g id="node27" class="node">
<title>TooltipRedSmallComponent </title>
<polygon fill="#fb8072" stroke="black" points="1760.77,-152.8 1579.23,-152.8 1579.23,-116.8 1760.77,-116.8 1760.77,-152.8"/>
<text text-anchor="middle" x="1670" y="-130.6" font-family="Times,serif" font-size="14.00">TooltipRedSmallComponent </text>
</g>
<!-- SharedModule&#45;&gt;TooltipRedSmallComponent  -->
<g id="edge25" class="edge">
<title>SharedModule&#45;&gt;TooltipRedSmallComponent </title>
<path fill="none" stroke="black" stroke-dasharray="5,2" d="M957.41,-75.8C1126.27,-75.8 1670,-75.8 1670,-75.8 1670,-75.8 1670,-106.78 1670,-106.78"/>
<polygon fill="black" stroke="black" points="1666.5,-106.78 1670,-116.78 1673.5,-106.78 1666.5,-106.78"/>
</g>
<!-- TooltipWhiteSmallComponent  -->
<g id="node28" class="node">
<title>TooltipWhiteSmallComponent </title>
<polygon fill="#fb8072" stroke="black" points="1561.43,-152.8 1368.57,-152.8 1368.57,-116.8 1561.43,-116.8 1561.43,-152.8"/>
<text text-anchor="middle" x="1465" y="-130.6" font-family="Times,serif" font-size="14.00">TooltipWhiteSmallComponent </text>
</g>
<!-- SharedModule&#45;&gt;TooltipWhiteSmallComponent  -->
<g id="edge26" class="edge">
<title>SharedModule&#45;&gt;TooltipWhiteSmallComponent </title>
<path fill="none" stroke="black" stroke-dasharray="5,2" d="M957.43,-78.8C1093.75,-78.8 1465,-78.8 1465,-78.8 1465,-78.8 1465,-106.77 1465,-106.77"/>
<polygon fill="black" stroke="black" points="1461.5,-106.77 1465,-116.77 1468.5,-106.77 1461.5,-106.77"/>
</g>
<!-- UserDataPostulationModule -->
<g id="node33" class="node">
<title>UserDataPostulationModule</title>
<polygon fill="#8dd3c7" stroke="black" points="3353.92,-152.8 3350.92,-156.8 3329.92,-156.8 3326.92,-152.8 3178.08,-152.8 3178.08,-116.8 3353.92,-116.8 3353.92,-152.8"/>
<text text-anchor="middle" x="3266" y="-130.6" font-family="Times,serif" font-size="14.00">UserDataPostulationModule</text>
</g>
<!-- SharedModule&#45;&gt;UserDataPostulationModule -->
<g id="edge31" class="edge">
<title>SharedModule&#45;&gt;UserDataPostulationModule</title>
<path fill="none" stroke="black" d="M957.38,-52.8C1257.85,-52.8 2827.64,-52.8 2827.64,-52.8 2827.64,-52.8 2827.64,-140.8 2827.64,-140.8 2827.64,-140.8 3168.08,-140.8 3168.08,-140.8"/>
<polygon fill="black" stroke="black" points="3168.08,-144.3 3178.08,-140.8 3168.08,-137.3 3168.08,-144.3"/>
</g>
<!-- UserDataRegisterModule -->
<g id="node40" class="node">
<title>UserDataRegisterModule</title>
<polygon fill="#8dd3c7" stroke="black" points="4382.57,-152.8 4379.57,-156.8 4358.57,-156.8 4355.57,-152.8 4223.43,-152.8 4223.43,-116.8 4382.57,-116.8 4382.57,-152.8"/>
<text text-anchor="middle" x="4303" y="-130.6" font-family="Times,serif" font-size="14.00">UserDataRegisterModule</text>
</g>
<!-- SharedModule&#45;&gt;UserDataRegisterModule -->
<g id="edge38" class="edge">
<title>SharedModule&#45;&gt;UserDataRegisterModule</title>
<path fill="none" stroke="black" d="M883.39,-84.99C883.39,-93.08 883.39,-100.8 883.39,-100.8 883.39,-100.8 4278.17,-100.8 4278.17,-100.8 4278.17,-100.8 4278.17,-106.61 4278.17,-106.61"/>
<polygon fill="black" stroke="black" points="4274.67,-106.61 4278.17,-116.61 4281.67,-106.61 4274.67,-106.61"/>
</g>
<!-- ApplyComponent -->
<g id="node10" class="node">
<title>ApplyComponent</title>
<polygon fill="#ffffb3" stroke="black" points="5767.33,-84.8 5650.67,-84.8 5650.67,-48.8 5767.33,-48.8 5767.33,-84.8"/>
<text text-anchor="middle" x="5709" y="-62.6" font-family="Times,serif" font-size="14.00">ApplyComponent</text>
</g>
<!-- ConvocatoriaModule -->
<g id="node17" class="node">
<title>ConvocatoriaModule</title>
<polygon fill="#8dd3c7" stroke="black" points="5706.47,-152.8 5703.47,-156.8 5682.47,-156.8 5679.47,-152.8 5571.53,-152.8 5571.53,-116.8 5706.47,-116.8 5706.47,-152.8"/>
<text text-anchor="middle" x="5639" y="-130.6" font-family="Times,serif" font-size="14.00">ConvocatoriaModule</text>
</g>
<!-- ApplyComponent&#45;&gt;ConvocatoriaModule -->
<g id="edge9" class="edge">
<title>ApplyComponent&#45;&gt;ConvocatoriaModule</title>
<path fill="none" stroke="black" d="M5678.66,-85.02C5678.66,-85.02 5678.66,-106.53 5678.66,-106.53"/>
<polygon fill="black" stroke="black" points="5675.16,-106.53 5678.66,-116.53 5682.16,-106.53 5675.16,-106.53"/>
</g>
<!-- ContactComponent -->
<g id="node11" class="node">
<title>ContactComponent</title>
<polygon fill="#ffffb3" stroke="black" points="5632.38,-84.8 5507.62,-84.8 5507.62,-48.8 5632.38,-48.8 5632.38,-84.8"/>
<text text-anchor="middle" x="5570" y="-62.6" font-family="Times,serif" font-size="14.00">ContactComponent</text>
</g>
<!-- ContactComponent&#45;&gt;ConvocatoriaModule -->
<g id="edge10" class="edge">
<title>ContactComponent&#45;&gt;ConvocatoriaModule</title>
<path fill="none" stroke="black" d="M5601.98,-85.02C5601.98,-85.02 5601.98,-106.53 5601.98,-106.53"/>
<polygon fill="black" stroke="black" points="5598.48,-106.53 5601.98,-116.53 5605.48,-106.53 5598.48,-106.53"/>
</g>
<!-- ConvocatoriaBodyComponent -->
<g id="node12" class="node">
<title>ConvocatoriaBodyComponent</title>
<polygon fill="#ffffb3" stroke="black" points="5489.59,-84.8 5302.41,-84.8 5302.41,-48.8 5489.59,-48.8 5489.59,-84.8"/>
<text text-anchor="middle" x="5396" y="-62.6" font-family="Times,serif" font-size="14.00">ConvocatoriaBodyComponent</text>
</g>
<!-- ConvocatoriaBodyComponent&#45;&gt;ConvocatoriaModule -->
<g id="edge11" class="edge">
<title>ConvocatoriaBodyComponent&#45;&gt;ConvocatoriaModule</title>
<path fill="none" stroke="black" d="M5396,-84.83C5396,-101.2 5396,-122.8 5396,-122.8 5396,-122.8 5561.31,-122.8 5561.31,-122.8"/>
<polygon fill="black" stroke="black" points="5561.31,-126.3 5571.31,-122.8 5561.31,-119.3 5561.31,-126.3"/>
</g>
<!-- ProcessToApplyComponent -->
<g id="node13" class="node">
<title>ProcessToApplyComponent</title>
<polygon fill="#ffffb3" stroke="black" points="5284.16,-84.8 5109.84,-84.8 5109.84,-48.8 5284.16,-48.8 5284.16,-84.8"/>
<text text-anchor="middle" x="5197" y="-62.6" font-family="Times,serif" font-size="14.00">ProcessToApplyComponent</text>
</g>
<!-- ProcessToApplyComponent&#45;&gt;ConvocatoriaModule -->
<g id="edge12" class="edge">
<title>ProcessToApplyComponent&#45;&gt;ConvocatoriaModule</title>
<path fill="none" stroke="black" d="M5197,-85.1C5197,-103.07 5197,-127.8 5197,-127.8 5197,-127.8 5561.39,-127.8 5561.39,-127.8"/>
<polygon fill="black" stroke="black" points="5561.39,-131.3 5571.39,-127.8 5561.39,-124.3 5561.39,-131.3"/>
</g>
<!-- RequirementsToApplyComponent -->
<g id="node14" class="node">
<title>RequirementsToApplyComponent</title>
<polygon fill="#ffffb3" stroke="black" points="6328.64,-84.8 6119.36,-84.8 6119.36,-48.8 6328.64,-48.8 6328.64,-84.8"/>
<text text-anchor="middle" x="6224" y="-62.6" font-family="Times,serif" font-size="14.00">RequirementsToApplyComponent</text>
</g>
<!-- RequirementsToApplyComponent&#45;&gt;ConvocatoriaModule -->
<g id="edge13" class="edge">
<title>RequirementsToApplyComponent&#45;&gt;ConvocatoriaModule</title>
<path fill="none" stroke="black" d="M6224,-85.05C6224,-107.82 6224,-143.8 6224,-143.8 6224,-143.8 5716.68,-143.8 5716.68,-143.8"/>
<polygon fill="black" stroke="black" points="5716.68,-140.3 5706.68,-143.8 5716.68,-147.3 5716.68,-140.3"/>
</g>
<!-- TimelineComponent -->
<g id="node15" class="node">
<title>TimelineComponent</title>
<polygon fill="#ffffb3" stroke="black" points="6100.87,-84.8 5969.13,-84.8 5969.13,-48.8 6100.87,-48.8 6100.87,-84.8"/>
<text text-anchor="middle" x="6035" y="-62.6" font-family="Times,serif" font-size="14.00">TimelineComponent</text>
</g>
<!-- TimelineComponent&#45;&gt;ConvocatoriaModule -->
<g id="edge14" class="edge">
<title>TimelineComponent&#45;&gt;ConvocatoriaModule</title>
<path fill="none" stroke="black" d="M6035,-85.02C6035,-105.17 6035,-134.8 6035,-134.8 6035,-134.8 5716.62,-134.8 5716.62,-134.8"/>
<polygon fill="black" stroke="black" points="5716.62,-131.3 5706.62,-134.8 5716.62,-138.3 5716.62,-131.3"/>
</g>
<!-- WhoCanApplyComponent -->
<g id="node16" class="node">
<title>WhoCanApplyComponent</title>
<polygon fill="#ffffb3" stroke="black" points="5951.1,-84.8 5784.9,-84.8 5784.9,-48.8 5951.1,-48.8 5951.1,-84.8"/>
<text text-anchor="middle" x="5868" y="-62.6" font-family="Times,serif" font-size="14.00">WhoCanApplyComponent</text>
</g>
<!-- WhoCanApplyComponent&#45;&gt;ConvocatoriaModule -->
<g id="edge15" class="edge">
<title>WhoCanApplyComponent&#45;&gt;ConvocatoriaModule</title>
<path fill="none" stroke="black" d="M5868,-84.82C5868,-102.17 5868,-125.8 5868,-125.8 5868,-125.8 5716.78,-125.8 5716.78,-125.8"/>
<polygon fill="black" stroke="black" points="5716.78,-122.3 5706.78,-125.8 5716.78,-129.3 5716.78,-122.3"/>
</g>
<!-- ConvocatoriaRoutingModule -->
<g id="node18" class="node">
<title>ConvocatoriaRoutingModule</title>
<polygon fill="#8dd3c7" stroke="black" points="5086.09,-84.8 5083.09,-88.8 5062.09,-88.8 5059.09,-84.8 4905.91,-84.8 4905.91,-48.8 5086.09,-48.8 5086.09,-84.8"/>
<text text-anchor="middle" x="4996" y="-62.6" font-family="Times,serif" font-size="14.00">ConvocatoriaRoutingModule</text>
</g>
<!-- ConvocatoriaRoutingModule&#45;&gt;ConvocatoriaModule -->
<g id="edge16" class="edge">
<title>ConvocatoriaRoutingModule&#45;&gt;ConvocatoriaModule</title>
<path fill="none" stroke="black" d="M4996,-84.83C4996,-104.38 4996,-132.8 4996,-132.8 4996,-132.8 5561.4,-132.8 5561.4,-132.8"/>
<polygon fill="black" stroke="black" points="5561.4,-136.3 5571.4,-132.8 5561.4,-129.3 5561.4,-136.3"/>
</g>
<!-- SidenavItemComponent -->
<g id="node19" class="node">
<title>SidenavItemComponent</title>
<polygon fill="#ffffb3" stroke="black" points="2269.09,-152.8 2116.91,-152.8 2116.91,-116.8 2269.09,-116.8 2269.09,-152.8"/>
<text text-anchor="middle" x="2193" y="-130.6" font-family="Times,serif" font-size="14.00">SidenavItemComponent</text>
</g>
<!-- SidenavItemComponent&#45;&gt;SharedModule -->
<g id="edge17" class="edge">
<title>SidenavItemComponent&#45;&gt;SharedModule</title>
<path fill="none" stroke="black" d="M2193,-116.67C2193,-96.23 2193,-65.8 2193,-65.8 2193,-65.8 967.59,-65.8 967.59,-65.8"/>
<polygon fill="black" stroke="black" points="967.59,-62.3 957.59,-65.8 967.59,-69.3 967.59,-62.3"/>
</g>
<!-- SidenavUserInfoComponent -->
<g id="node20" class="node">
<title>SidenavUserInfoComponent</title>
<polygon fill="#ffffb3" stroke="black" points="2099.19,-152.8 1922.81,-152.8 1922.81,-116.8 2099.19,-116.8 2099.19,-152.8"/>
<text text-anchor="middle" x="2011" y="-130.6" font-family="Times,serif" font-size="14.00">SidenavUserInfoComponent</text>
</g>
<!-- SidenavUserInfoComponent&#45;&gt;SharedModule -->
<g id="edge18" class="edge">
<title>SidenavUserInfoComponent&#45;&gt;SharedModule</title>
<path fill="none" stroke="black" d="M2011,-116.77C2011,-97.22 2011,-68.8 2011,-68.8 2011,-68.8 967.54,-68.8 967.54,-68.8"/>
<polygon fill="black" stroke="black" points="967.54,-65.3 957.54,-68.8 967.54,-72.3 967.54,-65.3"/>
</g>
<!-- SteperComponent -->
<g id="node21" class="node">
<title>SteperComponent</title>
<polygon fill="#ffffb3" stroke="black" points="2807.6,-152.8 2690.4,-152.8 2690.4,-116.8 2807.6,-116.8 2807.6,-152.8"/>
<text text-anchor="middle" x="2749" y="-130.6" font-family="Times,serif" font-size="14.00">SteperComponent</text>
</g>
<!-- SteperComponent&#45;&gt;SharedModule -->
<g id="edge19" class="edge">
<title>SteperComponent&#45;&gt;SharedModule</title>
<path fill="none" stroke="black" d="M2749,-116.48C2749,-93.14 2749,-55.8 2749,-55.8 2749,-55.8 967.24,-55.8 967.24,-55.8"/>
<polygon fill="black" stroke="black" points="967.24,-52.3 957.24,-55.8 967.24,-59.3 967.24,-52.3"/>
</g>
<!-- TooltipRedSmallComponent -->
<g id="node22" class="node">
<title>TooltipRedSmallComponent</title>
<polygon fill="#ffffb3" stroke="black" points="2672.77,-152.8 2495.23,-152.8 2495.23,-116.8 2672.77,-116.8 2672.77,-152.8"/>
<text text-anchor="middle" x="2584" y="-130.6" font-family="Times,serif" font-size="14.00">TooltipRedSmallComponent</text>
</g>
<!-- TooltipRedSmallComponent&#45;&gt;SharedModule -->
<g id="edge20" class="edge">
<title>TooltipRedSmallComponent&#45;&gt;SharedModule</title>
<path fill="none" stroke="black" d="M2584,-116.79C2584,-94.31 2584,-58.8 2584,-58.8 2584,-58.8 967.25,-58.8 967.25,-58.8"/>
<polygon fill="black" stroke="black" points="967.25,-55.3 957.25,-58.8 967.25,-62.3 967.25,-55.3"/>
</g>
<!-- TooltipWhiteSmallComponent -->
<g id="node23" class="node">
<title>TooltipWhiteSmallComponent</title>
<polygon fill="#ffffb3" stroke="black" points="2476.93,-152.8 2287.07,-152.8 2287.07,-116.8 2476.93,-116.8 2476.93,-152.8"/>
<text text-anchor="middle" x="2382" y="-130.6" font-family="Times,serif" font-size="14.00">TooltipWhiteSmallComponent</text>
</g>
<!-- TooltipWhiteSmallComponent&#45;&gt;SharedModule -->
<g id="edge21" class="edge">
<title>TooltipWhiteSmallComponent&#45;&gt;SharedModule</title>
<path fill="none" stroke="black" d="M2382,-116.63C2382,-95.3 2382,-62.8 2382,-62.8 2382,-62.8 967.46,-62.8 967.46,-62.8"/>
<polygon fill="black" stroke="black" points="967.46,-59.3 957.46,-62.8 967.46,-66.3 967.46,-59.3"/>
</g>
<!-- FillFileComponent -->
<g id="node29" class="node">
<title>FillFileComponent</title>
<polygon fill="#ffffb3" stroke="black" points="3790.07,-84.8 3667.93,-84.8 3667.93,-48.8 3790.07,-48.8 3790.07,-84.8"/>
<text text-anchor="middle" x="3729" y="-62.6" font-family="Times,serif" font-size="14.00">FillFileComponent</text>
</g>
<!-- FillFileComponent&#45;&gt;UserDataPostulationModule -->
<g id="edge27" class="edge">
<title>FillFileComponent&#45;&gt;UserDataPostulationModule</title>
<path fill="none" stroke="black" d="M3729,-84.91C3729,-104.14 3729,-131.8 3729,-131.8 3729,-131.8 3363.9,-131.8 3363.9,-131.8"/>
<polygon fill="black" stroke="black" points="3363.9,-128.3 3353.9,-131.8 3363.9,-135.3 3363.9,-128.3"/>
</g>
<!-- UploadFilesComponent -->
<g id="node30" class="node">
<title>UploadFilesComponent</title>
<polygon fill="#ffffb3" stroke="black" points="3649.77,-84.8 3500.23,-84.8 3500.23,-48.8 3649.77,-48.8 3649.77,-84.8"/>
<text text-anchor="middle" x="3575" y="-62.6" font-family="Times,serif" font-size="14.00">UploadFilesComponent</text>
</g>
<!-- UploadFilesComponent&#45;&gt;UserDataPostulationModule -->
<g id="edge28" class="edge">
<title>UploadFilesComponent&#45;&gt;UserDataPostulationModule</title>
<path fill="none" stroke="black" d="M3575,-84.83C3575,-101.86 3575,-124.8 3575,-124.8 3575,-124.8 3363.72,-124.8 3363.72,-124.8"/>
<polygon fill="black" stroke="black" points="3363.72,-121.3 3353.72,-124.8 3363.72,-128.3 3363.72,-121.3"/>
</g>
<!-- UserDataPostulationBodyComponent -->
<g id="node31" class="node">
<title>UserDataPostulationBodyComponent</title>
<polygon fill="#ffffb3" stroke="black" points="3481.54,-84.8 3254.46,-84.8 3254.46,-48.8 3481.54,-48.8 3481.54,-84.8"/>
<text text-anchor="middle" x="3368" y="-62.6" font-family="Times,serif" font-size="14.00">UserDataPostulationBodyComponent</text>
</g>
<!-- UserDataPostulationBodyComponent&#45;&gt;UserDataPostulationModule -->
<g id="edge29" class="edge">
<title>UserDataPostulationBodyComponent&#45;&gt;UserDataPostulationModule</title>
<path fill="none" stroke="black" d="M3303.97,-85.02C3303.97,-85.02 3303.97,-106.53 3303.97,-106.53"/>
<polygon fill="black" stroke="black" points="3300.47,-106.53 3303.97,-116.53 3307.47,-106.53 3300.47,-106.53"/>
</g>
<!-- VerifyDataComponent -->
<g id="node32" class="node">
<title>VerifyDataComponent</title>
<polygon fill="#ffffb3" stroke="black" points="3236.3,-84.8 3091.7,-84.8 3091.7,-48.8 3236.3,-48.8 3236.3,-84.8"/>
<text text-anchor="middle" x="3164" y="-62.6" font-family="Times,serif" font-size="14.00">VerifyDataComponent</text>
</g>
<!-- VerifyDataComponent&#45;&gt;UserDataPostulationModule -->
<g id="edge30" class="edge">
<title>VerifyDataComponent&#45;&gt;UserDataPostulationModule</title>
<path fill="none" stroke="black" d="M3207.22,-85.02C3207.22,-85.02 3207.22,-106.53 3207.22,-106.53"/>
<polygon fill="black" stroke="black" points="3203.72,-106.53 3207.22,-116.53 3210.72,-106.53 3203.72,-106.53"/>
</g>
<!-- UserDataPostulationRoutingModule -->
<g id="node34" class="node">
<title>UserDataPostulationRoutingModule</title>
<polygon fill="#8dd3c7" stroke="black" points="3068.04,-84.8 3065.04,-88.8 3044.04,-88.8 3041.04,-84.8 2847.96,-84.8 2847.96,-48.8 3068.04,-48.8 3068.04,-84.8"/>
<text text-anchor="middle" x="2958" y="-62.6" font-family="Times,serif" font-size="14.00">UserDataPostulationRoutingModule</text>
</g>
<!-- UserDataPostulationRoutingModule&#45;&gt;UserDataPostulationModule -->
<g id="edge32" class="edge">
<title>UserDataPostulationRoutingModule&#45;&gt;UserDataPostulationModule</title>
<path fill="none" stroke="black" d="M2958,-85.07C2958,-103.36 2958,-128.8 2958,-128.8 2958,-128.8 3168.15,-128.8 3168.15,-128.8"/>
<polygon fill="black" stroke="black" points="3168.15,-132.3 3178.15,-128.8 3168.15,-125.3 3168.15,-132.3"/>
</g>
<!-- AcademicInfoComponent -->
<g id="node35" class="node">
<title>AcademicInfoComponent</title>
<polygon fill="#ffffb3" stroke="black" points="4556.9,-84.8 4395.1,-84.8 4395.1,-48.8 4556.9,-48.8 4556.9,-84.8"/>
<text text-anchor="middle" x="4476" y="-62.6" font-family="Times,serif" font-size="14.00">AcademicInfoComponent</text>
</g>
<!-- AcademicInfoComponent&#45;&gt;UserDataRegisterModule -->
<g id="edge33" class="edge">
<title>AcademicInfoComponent&#45;&gt;UserDataRegisterModule</title>
<path fill="none" stroke="black" d="M4476,-85.08C4476,-106.12 4476,-137.8 4476,-137.8 4476,-137.8 4392.66,-137.8 4392.66,-137.8"/>
<polygon fill="black" stroke="black" points="4392.66,-134.3 4382.66,-137.8 4392.66,-141.3 4392.66,-134.3"/>
</g>
<!-- GeneralInfoComponent -->
<g id="node36" class="node">
<title>GeneralInfoComponent</title>
<polygon fill="#ffffb3" stroke="black" points="4377.46,-84.8 4228.54,-84.8 4228.54,-48.8 4377.46,-48.8 4377.46,-84.8"/>
<text text-anchor="middle" x="4303" y="-62.6" font-family="Times,serif" font-size="14.00">GeneralInfoComponent</text>
</g>
<!-- GeneralInfoComponent&#45;&gt;UserDataRegisterModule -->
<g id="edge34" class="edge">
<title>GeneralInfoComponent&#45;&gt;UserDataRegisterModule</title>
<path fill="none" stroke="black" d="M4327.83,-85.02C4327.83,-85.02 4327.83,-106.53 4327.83,-106.53"/>
<polygon fill="black" stroke="black" points="4324.33,-106.53 4327.83,-116.53 4331.33,-106.53 4324.33,-106.53"/>
</g>
<!-- UnsaStudentComponent -->
<g id="node37" class="node">
<title>UnsaStudentComponent</title>
<polygon fill="#ffffb3" stroke="black" points="4210.38,-84.8 4057.62,-84.8 4057.62,-48.8 4210.38,-48.8 4210.38,-84.8"/>
<text text-anchor="middle" x="4134" y="-62.6" font-family="Times,serif" font-size="14.00">UnsaStudentComponent</text>
</g>
<!-- UnsaStudentComponent&#45;&gt;UserDataRegisterModule -->
<g id="edge35" class="edge">
<title>UnsaStudentComponent&#45;&gt;UserDataRegisterModule</title>
<path fill="none" stroke="black" d="M4134,-84.97C4134,-106.3 4134,-138.8 4134,-138.8 4134,-138.8 4213.45,-138.8 4213.45,-138.8"/>
<polygon fill="black" stroke="black" points="4213.45,-142.3 4223.45,-138.8 4213.45,-135.3 4213.45,-142.3"/>
</g>
<!-- UserBodyComponent -->
<g id="node38" class="node">
<title>UserBodyComponent</title>
<polygon fill="#ffffb3" stroke="black" points="4866.1,-84.8 4727.9,-84.8 4727.9,-48.8 4866.1,-48.8 4866.1,-84.8"/>
<text text-anchor="middle" x="4797" y="-62.6" font-family="Times,serif" font-size="14.00">UserBodyComponent</text>
</g>
<!-- UserBodyComponent&#45;&gt;UserDataRegisterModule -->
<g id="edge36" class="edge">
<title>UserBodyComponent&#45;&gt;UserDataRegisterModule</title>
<path fill="none" stroke="black" d="M4797,-85.18C4797,-109.08 4797,-147.8 4797,-147.8 4797,-147.8 4392.64,-147.8 4392.64,-147.8"/>
<polygon fill="black" stroke="black" points="4392.64,-144.3 4382.64,-147.8 4392.64,-151.3 4392.64,-144.3"/>
</g>
<!-- WelcomeComponent -->
<g id="node39" class="node">
<title>WelcomeComponent</title>
<polygon fill="#ffffb3" stroke="black" points="4709.47,-84.8 4574.53,-84.8 4574.53,-48.8 4709.47,-48.8 4709.47,-84.8"/>
<text text-anchor="middle" x="4642" y="-62.6" font-family="Times,serif" font-size="14.00">WelcomeComponent</text>
</g>
<!-- WelcomeComponent&#45;&gt;UserDataRegisterModule -->
<g id="edge37" class="edge">
<title>WelcomeComponent&#45;&gt;UserDataRegisterModule</title>
<path fill="none" stroke="black" d="M4642,-84.81C4642,-107.29 4642,-142.8 4642,-142.8 4642,-142.8 4392.91,-142.8 4392.91,-142.8"/>
<polygon fill="black" stroke="black" points="4392.91,-139.3 4382.91,-142.8 4392.91,-146.3 4392.91,-139.3"/>
</g>
<!-- UserDataRegisterRoutingModule -->
<g id="node41" class="node">
<title>UserDataRegisterRoutingModule</title>
<polygon fill="#8dd3c7" stroke="black" points="4034.19,-84.8 4031.19,-88.8 4010.19,-88.8 4007.19,-84.8 3829.81,-84.8 3829.81,-48.8 4034.19,-48.8 4034.19,-84.8"/>
<text text-anchor="middle" x="3932" y="-62.6" font-family="Times,serif" font-size="14.00">UserDataRegisterRoutingModule</text>
</g>
<!-- UserDataRegisterRoutingModule&#45;&gt;UserDataRegisterModule -->
<g id="edge39" class="edge">
<title>UserDataRegisterRoutingModule&#45;&gt;UserDataRegisterModule</title>
<path fill="none" stroke="black" d="M3932,-85.12C3932,-108.46 3932,-145.8 3932,-145.8 3932,-145.8 4213.41,-145.8 4213.41,-145.8"/>
<polygon fill="black" stroke="black" points="4213.41,-149.3 4223.41,-145.8 4213.41,-142.3 4213.41,-149.3"/>
</g>
</g>
</svg>
